<svg xmlns="http://www.w3.org/2000/svg" xmlns:xlink="http://www.w3.org/1999/xlink" viewBox="0 0 3000 1350"><defs><style>.cls-1{fill:url(#linear-gradient);}.cls-2{fill:#fff0ee;}</style><linearGradient id="linear-gradient" x1="1500" y1="791.83" x2="1500" y2="4.63" gradientUnits="userSpaceOnUse"><stop offset="0" stop-color="#fbe3cb"/><stop offset="1" stop-color="#fbc8b7"/></linearGradient></defs><g id="Layer_2" data-name="Layer 2"><g id="background"><rect class="cls-1" width="3000" height="1350"/><path class="cls-2" d="M434.09,162c2-22.66-19.33-22-24.66-9.66-2-13.67-15.34-13.34-20-6.34,10-22-41.67-56-54-11.66-10.67-14.34-32-1-20,14.33-19.67-12.67-61-1.43-62.34,25.45-8.33-6.12-22.33-3.29-25,7.63-16-9.75-28.33.25-28,8.59-14.33-9-34.66,25.66-96,26s70.34,16.66,88,7c3.34,12.66,35,7.66,39-.67,6.34,24,81.67,37.33,96.67-1.67,6,16.34,53,22.34,71.67,11s80.79,20.1,134-5c17.66-8.33-48.67,3.67-65-15.66,15.5-8.17,5.5-25.17-8.5-18.67C475.18,175.67,457.76,144.59,434.09,162Z"/><path class="cls-2" d="M2682.05,402.66c-1.67-19,16.16-18.39,20.62-8.08,1.67-11.42,12.82-11.14,16.72-5.29-8.36-18.39,34.82-46.81,45.13-9.75,8.91-12,26.74-.84,16.72,12,16.43-10.58,51-1.19,52.09,21.28,7-5.12,18.67-2.75,20.9,6.37,13.37-8.14,23.68.21,23.4,7.18,12-7.52,29,21.45,80.24,21.73s-58.79,13.93-73.55,5.85c-2.79,10.59-29.26,6.41-32.6-.56-5.29,20.06-68.26,31.21-80.79-1.39-5,13.65-44.3,18.67-59.9,9.19S2643.5,478,2599,457c-14.76-7,40.68,3.07,54.33-13.09-13-6.82-4.6-21,7.1-15.6C2647.72,414.08,2662.27,388.1,2682.05,402.66Z"/><path class="cls-2" d="M2411.2,151.86c6.57-12-12-24.82-22.27-8.39,12.78-29.94-67.17-75.93-86.15-24.1-5.85-16.42-39.8-14.86-43.45,3-17.52-7.72-28.11.31-27,14.18-18.25-6.57-25.92,5.84-23.36,15.33-16.43-3.28-29.94,5.48-27.38,16.43-20.45-3.28-44,40.52-117.85,29.94s52.14,23.72,85,9.12,70.09,17.52,96.38,2.19c16.42,13.87,61.69,10.22,74.1-5.84,12.42,16.43,89.44,17.52,98.2-1.46,14.61,17.89,145.24,31.47,186.55,5.48,42.34-26.65-67.17,22.23-104-9.51,24.82-10.21-18.26-48.54-35.41-24.44C2466.32,160.62,2439.67,135.44,2411.2,151.86Z"/><path class="cls-2" d="M506.75,608.09c-6.57-12,12-24.82,22.27-8.39-12.78-29.94,67.17-75.93,86.15-24.1,5.84-16.42,39.79-14.85,43.44,3,17.52-7.72,28.11.31,27,14.18,18.25-6.57,25.91,5.84,23.36,15.33,16.43-3.28,29.93,5.48,27.38,16.43,20.44-3.28,44,40.52,117.85,29.94s-52.14,23.72-85,9.12-70.09,17.53-96.37,2.19c-16.43,13.88-61.7,10.22-74.11-5.84-12.41,16.43-89.44,17.52-98.2-1.46C485.94,676.36,355.31,689.94,314,664c-42.35-26.65,67.17,22.23,104-9.51-24.82-10.21,18.25-48.54,35.41-24.44C451.62,616.86,478.27,591.67,506.75,608.09Z"/></g></g></svg>