<svg xmlns="http://www.w3.org/2000/svg" xmlns:xlink="http://www.w3.org/1999/xlink" viewBox="0 0 1668.62 768.03"><defs><style>.cls-1{fill:url(#linear-gradient);}.cls-2{fill:url(#linear-gradient-2);}.cls-3{fill:url(#linear-gradient-3);}.cls-4{fill:url(#linear-gradient-4);}.cls-5{fill:url(#linear-gradient-5);}.cls-6{fill:url(#linear-gradient-6);}.cls-7{fill:url(#linear-gradient-7);}.cls-8{fill:url(#linear-gradient-8);}.cls-9{fill:url(#linear-gradient-9);}.cls-10{fill:url(#linear-gradient-10);}.cls-11{fill:url(#linear-gradient-11);}.cls-12{fill:url(#linear-gradient-12);}.cls-13{fill:url(#linear-gradient-13);}.cls-14{fill:url(#linear-gradient-14);}</style><linearGradient id="linear-gradient" x1="834.31" y1="21.37" x2="834.31" y2="663.33" gradientUnits="userSpaceOnUse"><stop offset="0" stop-color="#ea8147"/><stop offset="1" stop-color="#ea6647"/></linearGradient><linearGradient id="linear-gradient-2" x1="1269.97" y1="390.09" x2="1293.75" y2="518.52" gradientUnits="userSpaceOnUse"><stop offset="0" stop-color="#ea6647"/><stop offset="0.05" stop-color="#ea6547"/><stop offset="1" stop-color="#ea5747"/></linearGradient><linearGradient id="linear-gradient-3" x1="668.19" y1="33.16" x2="668.19" y2="664.67" gradientUnits="userSpaceOnUse"><stop offset="0" stop-color="#ee9158"/><stop offset="1" stop-color="#ea8147"/></linearGradient><linearGradient id="linear-gradient-4" x1="1002.81" y1="33.16" x2="1002.81" y2="664.67" gradientUnits="userSpaceOnUse"><stop offset="0" stop-color="#eeaa58"/><stop offset="1" stop-color="#ee9158"/></linearGradient><linearGradient id="linear-gradient-5" x1="759.34" y1="23.36" x2="1075.78" y2="423.91" xlink:href="#linear-gradient-4"/><linearGradient id="linear-gradient-6" x1="1195.43" y1="33.16" x2="1195.43" y2="664.67" xlink:href="#linear-gradient-4"/><linearGradient id="linear-gradient-7" x1="787.9" y1="0.79" x2="1104.35" y2="401.34" xlink:href="#linear-gradient-4"/><linearGradient id="linear-gradient-8" x1="828.29" y1="33.16" x2="828.29" y2="664.67" xlink:href="#linear-gradient-4"/><linearGradient id="linear-gradient-9" x1="762.11" y1="21.17" x2="1078.56" y2="421.72" xlink:href="#linear-gradient-4"/><linearGradient id="linear-gradient-10" x1="906.8" y1="33.16" x2="906.8" y2="664.67" xlink:href="#linear-gradient-4"/><linearGradient id="linear-gradient-11" x1="735.19" y1="42.43" x2="1051.64" y2="442.98" xlink:href="#linear-gradient-4"/><linearGradient id="linear-gradient-12" x1="598.9" y1="13.67" x2="510.9" y2="405.67" xlink:href="#linear-gradient-4"/><linearGradient id="linear-gradient-13" x1="722.6" y1="39.37" x2="161.39" y2="461.47" xlink:href="#linear-gradient-4"/><linearGradient id="linear-gradient-14" x1="1070.13" y1="145.62" x2="1035" y2="185.05" xlink:href="#linear-gradient-2"/></defs><g id="Layer_2" data-name="Layer 2"><g id="mountain"><path class="cls-1" d="M0,498c225-93,436.89-277.25,477.38-305.75s102,25.5,102,25.5c42-39,202.89-211.6,222.89-217.6s188.09,154.6,215.09,181.6c33-31.5,60-40.5,67.49-42s504.28,391.86,583.77,456.59V768H0Z"/><path class="cls-2" d="M1668.62,596.35c-37.29-30.36-166.39-133-293.74-233.34-15.28-.15-27.87-.85-45.54-1.78-31.18-1.63-25.15-6-48,10.13s-35.56,32.08-62.44,27.31-40.81-4.82-58-27.31-75.69-43.91-90.77-46.94-53.8,84.85-87.11,138.81c-18.83,30.5-12.57,180.31-3.57,304.8h689.13Z"/><path class="cls-3" d="M1274.11,636.87c-6.17-21.67,4.23-24.3-3.32-43.65s-15.72-30.73-35.77-39.36-12.51-21.38-27.45-28.88-27.3-20.43-36.9-30-16.4-18.43-24.73-31.76-27.67-20.67-42.67-34.23-5-23.1-13.7-39.77-8-44.67-17.27-60-30.69-3.33-62.56-4-40.8,25.33-60.24,14.67-19.23-11.34-30.3-17.34-10.93-18.66-8.49-40.66,7.56-39.34-1.44-54-9.66-16.67-23.66-30-26-4.67-38.67-9.34-44,12.67-43,0,65.62-57.33,62.28-76-22-30.66-36-45.53-15.33-33.13-22-47.13A43.42,43.42,0,0,1,804,0a5,5,0,0,0-1.74.14c-20,6-180.89,178.6-222.89,217.6,0,0-61.5-54-102-25.5S225,405,0,498V768H1336.38c-.47-7-.93-12.58-1.36-16.25C1331.7,723.45,1280.27,658.55,1274.11,636.87Z"/><path class="cls-4" d="M965.77,349.05c19.5,3,16.5-1,33.5-7.5s29-9.5,41-7.5c10.82,1.8,26.1-.86,37.07,7.39a50.59,50.59,0,0,0-5-12.22c-9.3-15.33-30.69-3.33-62.56-4s-40.8,25.33-60.24,14.67c-12.38-6.8-16.79-9.54-21.22-12.18h0C935,331.74,946.27,346.05,965.77,349.05Z"/><path class="cls-5" d="M965.77,349.05c19.5,3,16.5-1,33.5-7.5s29-9.5,41-7.5c10.82,1.8,26.1-.86,37.07,7.39a50.59,50.59,0,0,0-5-12.22c-9.3-15.33-30.69-3.33-62.56-4s-40.8,25.33-60.24,14.67c-12.38-6.8-16.79-9.54-21.22-12.18h0C935,331.74,946.27,346.05,965.77,349.05Z"/><path class="cls-6" d="M1235,553.86c-20-8.63-12.51-21.38-27.45-28.88s-27.3-20.43-36.9-30-16.4-18.43-24.73-31.76c-4.38-7-11.81-12.36-20-17.83,11.28,17.41,32.39,51.24,38.89,58.16,8,8.5,4,2,23.48,17.76s27,24,57.17,45.74c6.21,4.5,12.78,8.94,19.52,13.31C1258.52,568.46,1250.16,560.38,1235,553.86Z"/><path class="cls-7" d="M1235,553.86c-20-8.63-12.51-21.38-27.45-28.88s-27.3-20.43-36.9-30-16.4-18.43-24.73-31.76c-4.38-7-11.81-12.36-20-17.83,11.28,17.41,32.39,51.24,38.89,58.16,8,8.5,4,2,23.48,17.76s27,24,57.17,45.74c6.21,4.5,12.78,8.94,19.52,13.31C1258.52,568.46,1250.16,560.38,1235,553.86Z"/><path class="cls-8" d="M799.61,37.22c10.66,16,15.33,20.67,29.33,38s24.14,32.21,25.33,45.33c1,10.86-25,33.51-34.25,48.09,19.2-18.52,48.53-43.35,46.25-56.09-3.33-18.66-22-30.66-36-45.53s-15.33-33.13-22-47.13A43.42,43.42,0,0,1,804,0a5,5,0,0,0-1.74.14C800,.84,796,3.63,790.53,8.1,789.22,21.82,791.58,25.18,799.61,37.22Z"/><path class="cls-9" d="M799.61,37.22c10.66,16,15.33,20.67,29.33,38s24.14,32.21,25.33,45.33c1,10.86-25,33.51-34.25,48.09,19.2-18.52,48.53-43.35,46.25-56.09-3.33-18.66-22-30.66-36-45.53s-15.33-33.13-22-47.13A43.42,43.42,0,0,1,804,0a5,5,0,0,0-1.74.14C800,.84,796,3.63,790.53,8.1,789.22,21.82,791.58,25.18,799.61,37.22Z"/><path class="cls-10" d="M902.77,237.55c-.5,8.5-8.81,46.51,6.6,63a172.71,172.71,0,0,1,1.34-18.66c2.43-22,7.56-39.34-1.44-54-4.55-7.42-7-11.59-10.06-15.63C903.29,218.17,903.27,229.05,902.77,237.55Z"/><path class="cls-11" d="M902.77,237.55c-.5,8.5-8.81,46.51,6.6,63a172.71,172.71,0,0,1,1.34-18.66c2.43-22,7.56-39.34-1.44-54-4.55-7.42-7-11.59-10.06-15.63C903.29,218.17,903.27,229.05,902.77,237.55Z"/><path class="cls-12" d="M732.22,672.87c-24.14-20.75-78.25-92.57-70.6-117.94s5.15-24,19.4-34.69,5.25-8.92,21.25-31.3,23.45-32.75,12.73-51.07-20.23-37.25-34-47.78-47.81-3.94-56.28-6.07,6.77-36.46,17.49-48.3,28-96.22,42-117.36,9.34-33.81,24.67-67.14,13.77-40,27.22-56C746.8,82.56,777,39.78,791.1,7.63,748.72,42.08,616.82,183,579.38,217.76c-20.44,20.13-39.3,36.79-54.54,64.13s-57.54,45.69-73.72,68.18-38.43,56.88-59,77S285.76,512.3,267,538,151.7,702,151.05,722.33c-.14,4.34-7.49,21.33-19.11,45.7H727.17C735.88,717.66,739.59,679.2,732.22,672.87Z"/><path class="cls-13" d="M438.26,260.55c18.66-9.33,42,.67,53.75-14.66s30.26-20.34,21.26-27.53-19-16.31-18-24.31c.59-4.74-.7-6.85-1.16-9a44.49,44.49,0,0,0-16.73,7.23c-24.6,17.31-112.43,92.08-228,169,50.5-20.73,100.15-52.59,108.19-60.68C368.81,289.22,419.61,269.89,438.26,260.55Z"/><path class="cls-14" d="M1084.85,139.76c-3.42,1.87-18.91,15.79-22.25,22.12s-6.66,20.67-12,24.67-4.33,14-9.66,12-14-8.67-23.58-16.79C1050.35,150.26,1077.35,141.26,1084.85,139.76Z"/></g></g></svg>