<svg xmlns="http://www.w3.org/2000/svg" viewBox="0 0 3095.82 810.79"><defs><style>.cls-1{fill:#441944;}</style></defs><g id="Layer_2" data-name="Layer 2"><g id="trees"><path class="cls-1" d="M230.7,516v67.13h26.9s2.55-77.33,0-87.81,46.17,25.78,39.66,17.85-19.26-18.7-22.38-24.93,39.47,25.3,35.31,18.51-26.25-25.31-31.05-33.24,30.58,11.05,25.76,6.8-17-21-22.37-25.49,36.54,6.51,22.66,0-23.79-23.79-28-32.41,47.86,18,39.65,13.71-22.38-15-26.06-18.69,21,5.1,17,2.83-19.55-19.82-22.95-27.19,27.2,11.33,17.85,0-3.4-20.39-11.05-29.74,17-1.42,11.05-7.36S291,342.1,284.23,337s15-1.13,7.65-9.06,33.42,9.06,19.55,0-17.29-22.1-24.37-30.31,22.66,4.25,17.56,0-6.23-6.52-11.05-14.45,22.1,5.38,17.28,0S299.24,270.44,295,264.77s15.86,8.22,10.76,2.55-16.14-23.22-19.82-26.91,13.31,3.69,9,0-10.15-19.82-16.09-26S302.64,224,293,216.62,278.56,194.24,273.18,188s5.1-1.13-.28-5.66-12.46-31.16-9.07-28,24.36,6.8,23.23,2.83-5.38-5.95-6.8-8.78,2-4.53,1.7-5.67-4.81-4.24-8.78-8.49,3.12-4,0-7.65-11.05-19.26-14.44-24.08,3.39-5.09-2-13.59S243.57,41,240.61,41c-4.25,0-24.45,48.81-24.27,53s7.75-.19,7.18,4-11.9,27-19.26,36.26,10.57-6,10.2-.38-8.5,19.83-11.9,25.3,8.12-3.4,7,.38-12.47,14.73-18.32,19.07,19.26-9.82,18.13-7.17-4.35,25.11-7.74,29.27,5.66-4,5.47-1.89S199,213.32,195.76,219s16.62-14.73,16.24-10.76-8.31,19.83-12.27,24.92,14.73-8.68,13.78-2.83-12.84,25.87-19.26,34.56,10.76-9.07,11.14-6.8-15.67,31.72-24.36,44,17-13.79,17.19-9.82-15.3,20.2-20.59,24.17,12.09-7,11.33-3.4-13.59,17.56-22.66,23.22S187.64,321,188,325.67s-12.46,19.07-18.69,24.17,24-14,27.19-11.9-14.92,24-21.91,30,20.4-11.14,20.59-7.37-14,32.48-24.36,42.3,22.28-18.5,24.73-17-4.91,9.63-9.82,17.75,15.11-4.35,14.73.56S195,416.5,183.11,429s12.65-7.55,14.16-2.83-9.44,20.77-17.94,28.32,15.3-9.25,15.49-7-10.39,12.47-19.07,26.63,14.72-14.92,18.5-6-9.06,34.36-17.94,41,21.91-12.27,22.85-10.38S181.6,515.44,166.87,520c-14.44,4.45,42.07-9.62,55.87-18.36.28-.17.54-.35.78-.52C235.79,492.41,230.7,509.4,230.7,516Z"/><path class="cls-1" d="M87.08,521h39.24V445.79c0-3.59,79.55,16.84,58.41,6.09S140.83,413,141.1,411.65s43.54,18,32.25,11-31.71-30.37-30.91-33.32,38.7,11.55,27.42,5.91S141.64,368.92,143,367.31s41.93,16.93,33.86,11.56-33.86-25-33.05-28.49,29,9.67,18.54,2.42-20.42-17.47-20.42-22,43.54,20.42,28.56,8.06-27.31-24.37-28.21-27.41,36,16.3,26.7,10.39-32.25-34.94-32.25-38.17,31.36,16.31,24.37,10.22-31.18-33.33-30.82-35.48,36,15.77,26.7,8.24-31.72-36.73-32.43-39.77,36.37,22,27.05,14.69-35.12-49.28-35.48-52.32,35.12,16.48,26.7,10.75S118.79,167.71,119,165s41.57,16.13,33.51,9.5-33.87-32.08-33.06-34.41,37.36,24.91,30,18.64S114,111.45,114,109.12,139,127,133,118.61,102.85,57,102.85,55.36s27.59,17.92,22.75,12.91S93.35,0,89.41,0C86.9,0,72.21,32.43,66.47,37.27s11.29-6.45,12.72-4.84-10.93,25.09-19.88,33S72.92,57.34,73.46,59,60.38,82.42,49.63,91.74,71.31,79.2,72.21,81.88s-21.33,28.67-31.72,35.66,27.77-14.87,30.28-12.36S50.71,134.74,36.37,143s26.34-9.67,26.52-9-22.4,27.77-33.51,33.69,25.63-8.42,27.42-7-21.38,27.59-29.51,30.82,17.5-3.76,18.4-2.33S34.94,203.9,28.13,207.48s23.29-7.16,25.44-5.19-16.3,21.86-25.26,25.08,27.59-4.48,28.49-3-8.6,10.39-17.38,15,13.26-1.26,15.76.89S36.37,264.64,24.9,272s26.88-9.5,26.52-6.63S36.73,285.07,20.78,291.7s27.06-6.45,27.24-4.12-13.8,16.3-24.19,23.47,23.83-9,24.55-5-15.05,19-23.65,26.88S48,320.36,49.45,324s-17.92,26.52-29.38,33,29.74-9.86,29.56-7.17-20.25,24.9-30.46,29.92,29-8.06,29.92-6.81-23.78,30.73-38.86,42,48.36-13.44,49.17-11.29S15.32,446.86,1.34,452.24s85.74-20.43,85.74-16.13Z"/><path class="cls-1" d="M337.8,570.3v35.16H309.63s-.21-28.6,0-31.56S245,593.38,264.1,583.22s36.43-31.77,37.06-34.74S257.11,572,269.6,562.89s29.44-36,30.5-39.19-54.22,30.08-38.33,18.43,39.55-46.33,39.55-49.19-46.06,24.94-30,13.82,26.26-29.12,25.94-30.39S271.09,487.06,278.5,482s20.33-19.48,20.76-23.3-51.68,23.09-37.49,13.56,32.88-28.38,32.88-30.45-32.72,12.39-22.72,6.68,22.08-26.69,20.81-28.91-46.54,20-31.92,11.59,36.69-28.75,36.53-31.93-37.49,18.91-27.48,11.44,26.37-31.29,25.41-33.52-24,9.75-17,5.3,19.48-16.31,18.64-19.7-45.33,22.66-30.53,11,33.7-33.47,33.7-36.43-37.7,21-24.78,12.07,25.21-36,23.09-40.88-41.51,22.24-29.86,11.65,35.79-35.58,35.05-37.27-28.91,12.28-21.08,7S312,257.06,312,252.82s-32,18.64-24.35,9.53,27.74-37.48,27.53-41.51-32.4,24.15-26.9,16.73,28.38-50,26.9-53.16-19.06,13.35-15,4.66,21.39-61,24.57-61c1.7,0,26.37,50.3,32,56.55s-14.61-9.85-15.14-8S359.19,200.4,365.44,205s-22.34-10.7-23.4-9.53,19.06,24.46,23.82,28.91-20.43-15.25-22-12.92,17.82,23.4,22.62,27.85-18.6-11.65-19.45-10.38,11.23,23.62,17.48,29.76S350,250,349.24,251.55s13.24,23.09,19.06,28S351,269.66,350,270.83s10.59,22.23,16.1,27.21-20-16.2-21.18-15.25,8.15,18.43,11.22,21.5-8.58-5.83-9.21-4.87,8.58,14.19,15.57,19.8-18.32-10.38-19.07-8.68,6.36,9.84,9.64,12.7-9.95-4.55-10.8-3.49,13.66,14.19,20.65,18.95-16-6.67-16.41-5.93,10.69,19.7,19.9,26.05-14.93-8.47-15.67-7.62,12.07,22.77,22,30.6-19.7-11.43-21.61-9.95,11.44,20.33,25,29.44-28-10.59-29.23-7.84,23.72,24.78,33,32.2S346.49,410,346.49,411.88s16.94,26.9,29.65,35.16-30.5-14.62-33.68-9.85,31.77,38.44,43.52,45.43-33.35-10.49-34.62-8.9,35.58,34,44.47,40-39.39-17.15-41.93-13,20,21.28,32.4,28.59-38.12-8-38.76-6.36,33.36,26.69,44.16,31.45-46.7-16.52-49.24-12.7,40.63,35.58,54.46,41.93S337.8,570.3,337.8,570.3Z"/><path class="cls-1" d="M155,529.56v35.16h28.17s.21-28.59,0-31.56,64.6,19.49,45.53,9.32-36.42-31.77-37.06-34.73,44.05,23.5,31.56,14.4-29.44-36-30.5-39.18,54.22,30.07,38.33,18.42S191.5,455.06,191.5,452.2s46.07,24.94,30,13.82-26.26-29.12-25.94-30.39,26.15,10.7,18.74,5.61S194,421.76,193.57,418,245.24,441,231.05,431.5s-32.88-28.38-32.88-30.44,32.72,12.39,22.72,6.67S198.81,381,200.08,378.82s46.54,20,31.93,11.59-36.7-28.75-36.54-31.92S233,377.39,223,369.92s-26.37-31.29-25.41-33.51,24,9.74,17,5.29S195.05,325.39,195.9,322s45.32,22.67,30.53,11-33.71-33.47-33.71-36.43,37.7,21,24.78,12.07-25.2-36-23.09-40.87,41.51,22.23,29.87,11.64-35.8-35.58-35.06-37.27,28.91,12.28,21.08,7-29.44-32.83-29.44-37.06,32,18.63,24.35,9.53-27.74-37.49-27.53-41.52,32.41,24.15,26.9,16.74-28.38-50-26.9-53.16,19.06,13.34,15,4.66-21.39-61-24.57-61c-1.69,0-26.37,50.3-32,56.55s14.61-9.85,15.14-8-17.68,23.83-23.93,28.38,22.35-10.7,23.4-9.53S131.72,179.15,127,183.6s20.44-15.25,22-12.92-17.82,23.4-22.62,27.85,18.6-11.65,19.45-10.38-11.23,23.62-17.48,29.76,14.51-8.68,15.25-7.1-13.23,23.09-19.06,28,17.26-9.85,18.32-8.68-10.59,22.24-16.09,27.21,20-16.2,21.18-15.25-8.16,18.43-11.23,21.5,8.58-5.82,9.21-4.87-8.57,14.19-15.56,19.8,18.32-10.38,19.06-8.68-6.36,9.85-9.64,12.71,10-4.56,10.8-3.5-13.66,14.19-20.65,19,16-6.67,16.42-5.93-10.7,19.69-19.91,26,14.93-8.48,15.67-7.63-12.07,22.77-22,30.61,19.69-11.44,21.6-10-11.44,20.33-25,29.44,27.95-10.59,29.22-7.84-23.72,24.78-33,32.2,33.47-15.68,33.47-13.77-17,26.9-29.65,35.16,30.49-14.62,33.67-9.85-31.77,38.44-43.52,45.43,33.36-10.48,34.63-8.9S105.89,467,97,473s39.39-17.15,41.93-13-20,21.28-32.4,28.59,38.12-7.94,38.76-6.36-33.36,26.69-44.16,31.46,46.7-16.52,49.24-12.71S109.74,536.55,95.9,542.9,155,529.56,155,529.56Z"/><path class="cls-1" d="M51.82,447.79c15,0,35,18,51,30s35,14,57,16,31,11,49,28,40,2,56,9,22,7,32,20,16,26,40,34,64-14,90,0,44,31,61,43,42,8,58,12,26,4,42,14,44-4,78,13,39,17,54,25,26,8,44,19,17,9,46,22,71,0,92,11,51,16.87,67,12.44,18-15.44,38-7.44,35,15,50,24,33,26,61,38H51.82Z"/><path class="cls-1" d="M2659.08,654.32v50.1H2639s-1.9-57.71,0-65.54-34.46,19.24-29.59,13.32,14.37-14,16.7-18.6-29.46,18.89-26.36,13.81,19.59-18.88,23.17-24.8-22.82,8.24-19.22,5.07,12.68-15.64,16.7-19-27.27,4.87-16.91,0,17.75-17.75,20.93-24.18-35.73,13.4-29.6,10.23,16.7-11.2,19.45-14-15.65,3.8-12.69,2.11,14.59-14.8,17.13-20.29-20.3,8.45-13.32,0,2.54-15.22,8.24-22.2-12.68-1.06-8.24-5.5,8.67-10.36,13.74-14.16-11.2-.85-5.71-6.77-24.94,6.77-14.59,0,12.9-16.49,18.19-22.62-16.92,3.17-13.11,0,4.65-4.86,8.24-10.78-16.49,4-12.89,0,8.67-9.51,11.84-13.74-11.84,6.13-8,1.9,12-17.33,14.8-20.08-9.93,2.75-6.73,0,7.58-14.8,12-19.45-17.76,7.19-10.57,1.69,10.78-16.7,14.8-21.35-3.81-.85.21-4.23,9.3-23.26,6.76-20.93-18.18,5.07-17.33,2.11,4-4.44,5.07-6.55-1.48-3.38-1.27-4.23,3.6-3.17,6.56-6.34-2.33-3,0-5.71,8.24-14.37,10.78-18-2.54-3.8,1.48-10.15,9.84-35.72,12-35.72c3.17,0,18.25,36.43,18.11,39.53s-5.78-.14-5.36,3,8.88,20.15,14.38,27.06-7.89-4.51-7.61-.28,6.34,14.8,8.88,18.88-6.06-2.53-5.22.29,9.3,11,13.67,14.23-14.37-7.33-13.53-5.36,3.24,18.75,5.78,21.85-4.23-3-4.09-1.41,6.06,10.85,8.46,15.08-12.4-11-12.12-8,6.2,14.8,9.16,18.6-11-6.48-10.29-2.11,9.59,19.31,14.38,25.79-8-6.77-8.32-5.07,11.7,23.67,18.18,32.83-12.68-10.28-12.82-7.32,11.41,15.08,15.36,18-9-5.22-8.46-2.54,10.15,13.11,16.92,17.33-15.93-11.41-16.21-7.89,9.3,14.24,14,18-17.9-10.43-20.29-8.88,11.13,17.9,16.35,22.41-15.23-8.31-15.37-5.49,10.43,24.24,18.18,31.57-16.63-13.82-18.46-12.69,3.67,7.19,7.33,13.25-11.28-3.24-11,.42,4.08,9.16,13,18.46-9.44-5.63-10.57-2.11,7.05,15.5,13.39,21.14-11.41-6.9-11.56-5.21,7.76,9.3,14.24,19.87-11-11.13-13.81-4.51,6.76,25.65,13.39,30.58-16.35-9.16-17.06-7.75,13.11,12.54,24.1,15.93c10.78,3.31-31.39-7.18-41.69-13.71-.21-.13-.41-.26-.59-.39C2655.27,636.7,2659.08,649.38,2659.08,654.32Z"/><path class="cls-1" d="M2775,634v81.52h30.34V633.3c0-5.85,72,28.15,45,11s-26-27.42-27.05-37.29,34.73,21.94,23,8-30.34-29.61-30-39.85,39.48,22.67,25.22,7-28.88-27.78-33.63-37.29,33.63,11.33,23.39,0-16.81-25.58-19.46-30.7,40.67,21.56,29.33,10.6-41.67-40.94-43.13-53,36.55,19.74,28.8,9.5-33.55-35.82-33.92-42.77,43.87,27,27.05,13.53-28.51-45.33-28.51-49.71,26.93,15,17.43,5.72-8.66-23.27-9.75-29.67,32.53,18.83,23.94,11.15-17.73-27.78-15.35-30.7,27.41,18.46,16.26,7.12-23.57-45.69-22.2-49.52S2832,333.2,2821,323.88s-16.45-22.12-18.82-25.77,23.94,14.62,15,5.85-16.63-21.39-17.54-24.49,21,13.16,14.07,5.85-22.48-32.54-23.76-38,18.64,12.61,12.06,3.84-16.81-34.55-16.45-37.29,17.55,15,8.78,4.76-8.05-47.52-11.88-47.52-22.85,43.68-29.79,49.89,13.52-10.23,15.17-4-10.06,9.69-14.44,17,16.45-9.14,16.81-2.93-20.1,39.48-26.87,44.78,20.29-9.5,21-5.12-10.23,27.42-19,33.45,20.47-9.69,20.11-6.58-22.3,22.3-25.95,28.33,15.71-11.88,15-2-9.5,33.45-20.28,40.76,12.61-3.84,12.79-.92-10.24,14.62-17.55,19.92,19.56-4,18.46-1.28-17.36,29.43-28.33,35.1,25.41-6.95,25.23-5.12-10.42,29.24-20.29,33.44,16.27-5.48,15.72-4-12.07,17.18-20.84,22.12,22.66-6.4,22.12-3.29-9.32,16.26-18.28,21.75,23.21-13.16,23.76-9.32-12.06,26.86-21.57,37.46,23.21-11.69,25.77-7.67-17.36,37.28-32.71,46.05,33.81-12.61,33.81-8.4-24.58,37.1-37.15,43.13,37.88-13.89,39.16-10.78-31.44,30.88-43.13,41.3,35.27-14.62,37.83-9.32-22.11,30.52-38.38,36.37S2775,627.64,2775,634Z"/><path class="cls-1" d="M2858,580.17v53.69h-22.21V582.29c0-2.91-63.75,22.21-47.35,14.81s46-43.91,45.16-46.29-46,14.48-31.94,7.14,31.74-27.57,31.15-28.37-42.06,12.5-33.53,8.33,32.93-17.85,32.93-23.4-47.21,9.72-33.32,4.36,32.53-18.05,30.64-23.21-51.67,15.47-36,7.34,38.09-28.37,39.28-34.32-43.05,15.28-29,6.75,28.59-24.8,29.19-30.16-37.69,15.48-26.39,8.14,23.81-30.56,22.62-34.52-36.9,13.09-21.62,4,28.36-25,27.79-30.59-28.19,14.88-19.26,6.95,19.24-24.6,17.85-29.16-27.77,14.08-19.64,5.15,22.22-32.53,22.22-36.7-20.83,9.53-13.49,1,18.65-29.56,17.85-32.14-27,16.86-17.06,5,25.39-32.54,22.82-38.09-22,11.11-11.31,0,17.46-53.17,19.31-53.17c3.44,0,21.42,46.56,27.51,53s-15.87-3.18-16.4-1.46,18.78,26.58,25.65,31.08-19.7-6.88-20.1-5.82,15.87,25.92,22.35,29-21-6.88-20.89-5.43S2892,351,2899,355.34s-23.41-12.83-25.39-11.24,17,26.45,26.44,31.08-31.47-9-31.47-7.54,9.39,13.75,17.06,18.25-12.69-3.31-13.22-2.12,14.41,22.35,25.92,26.45-24.47-5.42-24.6-4.76,19.71,32.14,29.23,38-25.66-6.48-25.92-4.23,20.46,27.77,27.55,33.19-28.21-15.21-28.61-13,20.76,24.73,33.06,30.16-30.28-10.58-30.81-7.67,32.14,27.9,46.29,34.78-40.08-7.28-40.21-5.56,29.44,19.71,43.62,24.6-45.47-10.58-45.6-9.12,20.1,20.76,37.16,25.65-38.35-9.12-38-6.61,11.51,13.49,20.5,18.12-14.81-5.16-15.73-4.23,22.61,17.46,38.08,21.69-47.21-13.49-47.87-11.51,20.34,12.51,37,21.82C2919.23,594.72,2858,575.54,2858,580.17Z"/><path class="cls-1" d="M2952.27,589.87h-39V515.1c0-3.56-79,16.73-58,6s43.61-38.63,43.34-40-43.25,17.89-32,10.95S2898.06,462,2897.26,459s-38.45,11.49-27.24,5.88,28-26.17,26.71-27.77-41.66,16.82-33.65,11.48,33.65-24.83,32.84-28.3-28.83,9.61-18.42,2.4,20.29-17.36,20.29-21.9-43.26,20.3-28.38,8,27.14-24.21,28-27.23-35.78,16.2-26.53,10.32S2903,357.2,2903,354s-31.16,16.2-24.21,10.15,31-33.11,30.61-35.25-35.78,15.67-26.52,8.19,31.51-36.49,32.22-39.52-36.14,21.9-26.88,14.6,34.89-49,35.25-52-34.89,16.38-26.53,10.68,23.86-32,23.68-34.71-41.3,16-33.29,9.43,33.65-31.86,32.84-34.18-37.11,24.75-29.81,18.51,35.24-47,35.24-49.31-24.92,17.81-18.87,9.44,29.91-61.24,29.91-62.84S2909.19,145,2914,140s32.05-67.83,36-67.83c2.49,0,17.09,32.22,22.79,37s-11.22-6.41-12.64-4.81,10.86,24.92,19.76,32.76-13.53-8-14.06-6.41,13,23.32,23.67,32.58-21.54-12.47-22.43-9.79S2988.23,182,2998.55,189s-27.59-14.77-30.08-12.28,19.93,29.37,34.18,37.56-26.17-9.61-26.35-8.9,22.25,27.59,33.29,33.47-25.46-8.37-27.24-6.95,21.24,27.42,29.31,30.62-17.38-3.74-18.27-2.31,10.68,14.6,17.44,18.16-23.14-7.12-25.27-5.17,16.2,21.72,25.1,24.93-27.42-4.45-28.31-3,8.55,10.32,17.27,14.95-13.17-1.24-15.67.89,18.7,24.21,30.09,31.51-26.7-9.43-26.35-6.58,14.6,19.58,30.44,26.16-26.88-6.4-27.06-4.09,13.71,16.2,24,23.32-23.68-8.9-24.39-5,15,18.87,23.5,26.7-23.15-12.46-24.57-8.9,17.8,26.34,29.2,32.75-29.56-9.79-29.38-7.12,20.12,24.75,30.27,29.73-28.84-8-29.73-6.76,23.63,30.53,38.61,41.74-48-13.35-48.85-11.21,43.79,43,57.68,48.33-85.18-20.3-85.18-16Z"/><path class="cls-1" d="M3035.34,515V550h-28s-.21-28.41,0-31.35-64.18,19.35-45.24,9.25,36.19-31.56,36.82-34.51-43.77,23.36-31.35,14.31,29.25-35.77,30.3-38.92S2944,498.62,2959.8,487s39.3-46,39.3-48.87-45.77,24.78-29.83,13.73,26.09-28.93,25.78-30.19-26,10.62-18.63,5.57,20.2-19.36,20.63-23.14-51.35,22.93-37.25,13.46,32.67-28.19,32.67-30.25S2960,399.66,2969.9,394s21.94-26.51,20.68-28.72-46.25,19.88-31.73,11.52,36.46-28.57,36.3-31.72-37.24,18.78-27.3,11.36,26.2-31.09,25.25-33.3-23.83,9.68-16.89,5.26,19.36-16.2,18.52-19.57-45,22.52-30.33,10.94,33.49-33.24,33.49-36.19-37.46,20.83-24.62,12,25-35.78,22.93-40.62S2955,277,2966.53,266.52s35.57-35.35,34.83-37-28.72,12.21-20.94,7,29.25-32.62,29.25-36.83-31.77,18.52-24.2,9.47,27.57-37.24,27.36-41.24-32.2,24-26.73,16.62,28.2-49.66,26.73-52.81-18.94,13.25-14.94,4.63,21.25-60.61,24.41-60.61c1.68,0,26.19,50,31.77,56.19s-14.52-9.79-15-8,17.57,23.67,23.77,28.2-22.2-10.63-23.25-9.47,18.94,24.3,23.67,28.72-20.3-15.15-21.88-12.84,17.71,23.26,22.48,27.68-18.48-11.58-19.32-10.32,11.15,23.47,17.36,29.57-14.42-8.63-15.15-7,13.15,22.94,18.93,27.78-17.15-9.79-18.2-8.63,10.52,22.09,16,27-19.88-16.1-21-15.15,8.1,18.3,11.15,21.36-8.52-5.79-9.15-4.84,8.52,14.09,15.47,19.67-18.2-10.31-18.94-8.63,6.31,9.79,9.57,12.63-9.89-4.53-10.73-3.47,13.57,14.1,20.52,18.83S3044.39,278.3,3044,279s10.63,19.57,19.78,25.88-14.83-8.42-15.57-7.58,12,22.63,21.88,30.41-19.57-11.36-21.46-9.89,11.36,20.2,24.83,29.25-27.78-10.52-29-7.79,23.57,24.62,32.83,32S3044,355.74,3044,357.63s16.83,26.73,29.46,34.93-30.3-14.52-33.46-9.78,31.57,38.19,43.24,45.13-33.14-10.41-34.4-8.83,35.35,33.77,44.19,39.77-39.14-17.05-41.66-13,19.88,21.15,32.19,28.41-37.88-7.89-38.51-6.31,33.14,26.51,43.88,31.25-46.4-16.42-48.93-12.63,40.36,35.35,54.11,41.67S3035.34,515,3035.34,515Z"/><path class="cls-1" d="M3051.82,509.36c-39,4.5-46.48,27-60,33s-48,10.5-66,15-16.5-4.5-48,22.5-42,42-69,31.5-46.5-16.5-61.5-12-48,24-51,30,10.5,4.5-27,21-37.49,16.5-73.49,19.5-29-.06-56,12.94-63,27-82,24-49-3-58,0-25,14-42,19-17,0-27,10-33,24-48,28-55.94-6.94-84.44-3.94-33,7.5-67.5,12-48-4.5-70.5,0-7.5-4.5-43.49,9-55.5,7.5-76.5,7.5-37.5,1.38-64.5,22.44H3051.82Z"/></g></g></svg>