<svg xmlns="http://www.w3.org/2000/svg" viewBox="0 0 2521 357.14"><defs><style>.cls-1{fill:#6e1448;}</style></defs><g id="Layer_2" data-name="Layer 2"><g id="trees"><path class="cls-1" d="M0,166.62c37-9.48,23-5.48,47-12.48s45-13,71-17,24-2,66-15,45-9,63-7,15,0,55,1,53-6,80-13,18-10,41-8,35-7,81-5,154-5,168-8,156-42,197-35,54-.41,88-2.61,43-7.39,70-7.39,19-5,78-5,58,4,87,7,47,5,60,9,62,6.14,94,7.57,44.88,2,66,5.43,21,0,41,9,18,1.48,44,14.24,64,7.76,112,12.76,64,5,84,9,43,12,59,14,51,1,74,8,31,22,87,19,59-7,96-2,29,7,51,12,65-5,85,0,43,18,62,25,41,12,64,19,46-.43,59,5.28,25,23.72,50,33.72,52,25,75,36,66,40,66,40v41H0Z"/><path class="cls-1" d="M2343.54,220c1-3.93,3-8.7,5.11-16.21,0,0-2.71,2.46-6.21,5.2s-7.79,5.76-10.87,7c-.62-2.14,2-6.08,4.73-11.56a42.12,42.12,0,0,0,3.48-9.34,22.43,22.43,0,0,0,.59-5.58,16.27,16.27,0,0,0-.31-3c-.1-.52-.21-1.06-.35-1.6s-.36-1.08-.58-1.63a40.7,40.7,0,0,1-7.58,11.7c-.87,1-1.78,1.94-2.69,2.87s-1.82,1.91-2.66,2.8l-1.2,1.32c-.44.45-.87.88-1.28,1.31s-.82.8-1.23,1.17-.93.78-1.39,1.12a14.17,14.17,0,0,0,1.44-3.35,22.4,22.4,0,0,0,.56-11.18,3.71,3.71,0,0,0-.71.42,11.42,11.42,0,0,0-2,1.9,27.92,27.92,0,0,0-3,4.32,63.82,63.82,0,0,0-3.75,7.68s-.33-.47-.86-1.29-1.27-2-2.08-3.41a31.85,31.85,0,0,1-4-10.52,36.47,36.47,0,0,1-3.41,3.76,66,66,0,0,1-4.91,4.42c-1.05.87-2.21,1.79-3.55,2.73s-2.79,2-4.48,3a17.76,17.76,0,0,0,2.22-7.37,21.86,21.86,0,0,0-.67-7.62,26.79,26.79,0,0,0-1.57-4.33,41.5,41.5,0,0,0-2.54-4.55c.05,6.19-1.16,11-4.37,14.81a17.29,17.29,0,0,1-2.77,2.53,18,18,0,0,1-3.57,2.07,28.43,28.43,0,0,1-4.41,1.52,46.71,46.71,0,0,1-5.3.81,13.9,13.9,0,0,0,2.94-3.76,11.08,11.08,0,0,0,.88-8.84,12.74,12.74,0,0,1-3.68,3.31c-2.72,1.77-7.16,3.8-14.18,4.85-4.28-7.61,3.58-23.23,6.82-32.36-10.74,6.69-16.26,23.69-27.08,28.46,0,0,3.83-6.71,1.61-12.7a167.48,167.48,0,0,1-14.32,10.78,26.17,26.17,0,0,1,1.87-4.72,24.81,24.81,0,0,1,6.62-8.42,48.52,48.52,0,0,0-6.4.93,64.61,64.61,0,0,0-14.4,4.79c1.84-4.3,5.07-11.21,6.27-17.83s.43-12.83-5.1-16c1,5.53.68,10.5-1.36,14.8s-6,7.81-12.18,10.09a11.27,11.27,0,0,1,1.17-3.91,20.28,20.28,0,0,1,7.06-7.84s-6.52-1.52-20.58,1.39a48.88,48.88,0,0,0,4.71-6.45c2.29-3.74,4.44-8.53,3.95-12.68-1.37,3.41-6.31,6.92-12.52,10a162.89,162.89,0,0,1-19.76,8,31.74,31.74,0,0,1,3.15-4.1,20.79,20.79,0,0,1,8-5.85,46.38,46.38,0,0,0-17.81,2.57,29.92,29.92,0,0,0-12.85,8.43l1.75.48c1.13.29,2.87.83,5.13,1.57,4.53,1.51,11.25,4.12,19.81,8l14.24,6.41c5.23,2.34,10.91,4.86,17.37,7.33s12.86,4.52,19.4,6.49,13.11,3.81,19.61,5.61,13,3.56,19.25,5.38l9.64,2.83c2.1.54,4.22,1.19,6.29,1.55l3.11.61c1,.21,2,.31,3.05.47a141.29,141.29,0,0,0,22.28,1.12c6.57-.13,12.34-.39,16.43-.2l1.35.11.66,0c.2,0,.33.06.5.08l1,.13a5,5,0,0,0,.55.14l.26,0a.11.11,0,0,0,0,.05h.05l.39-.85.11-.22,0-.11c.5-1.14-.61,1.41-.5,1.16l.06,0c.29.15.7.34,1.21.66a70.91,70.91,0,0,1,8,6.16c2.89,2.45,5.7,4.86,8.13,6.84s4.49,3.59,5.92,4.68C2342.63,227,2342.61,223.88,2343.54,220Z"/><path class="cls-1" d="M2138.69,160.15c-.09-.36-.18-.73-.27-1.12-.17-.78-.31-1.62-.46-2.55a97,97,0,0,0-3.22-16s-.55,3.61-1.35,7.93-1.76,9.34-2.93,12.28c-1.32-1.24-1.68-6-2.71-11.94s-2.75-13.08-7.13-19c.84,7.31.82,20.62-5.94,27.56a10.79,10.79,0,0,0,.71-3.58,29.64,29.64,0,0,0-1.7-11.05s-2.46,2.16-5.88,15.3c0,0-5-7.14-6.29-14.89a39,39,0,0,1-2.34,3.86,87.72,87.72,0,0,1-8.69,10.79,24.39,24.39,0,0,0,.94-7.53,28,28,0,0,0-5.28-15.93c.77,6.12.31,11.1-1.53,15.23a19.73,19.73,0,0,1-3.82,5.64,26.41,26.41,0,0,1-6.1,4.57,18.86,18.86,0,0,0,1.25-4.4,14.38,14.38,0,0,0-1.1-8.77,12.16,12.16,0,0,1-2,4.18,18.87,18.87,0,0,1-6.87,6c-.59.31-1.23.63-1.91.93a12.82,12.82,0,0,1-2.22.83c-2.49-3.56-1.74-9.36-.36-15.48s3.27-12.6,4.23-17.34c-.66,1.07-1.34,2.28-2.09,3.57s-1.72,2.56-2.56,4c-1.68,2.78-3.32,5.85-5,8.79-3.35,5.9-6.93,11.54-11.78,13.93a23.73,23.73,0,0,0,1.72-4.07,18.19,18.19,0,0,0,.82-8.43l-1.09,1-2.86,2.6c-2.4,2.09-5.41,4.82-7.92,7.42a39.36,39.36,0,0,1,1.81-4.74,26.29,26.29,0,0,1,5.85-8.5,13.63,13.63,0,0,0-1.37.21,22.83,22.83,0,0,0-3.54,1,28.89,28.89,0,0,0-10.14,6.69c1.14-4.53,3.36-11.81,4-18.48a21.76,21.76,0,0,0-.8-9.11,9.65,9.65,0,0,0-2-3.4,8.33,8.33,0,0,0-3.39-2.13c3.64,10.26,1.26,19.64-6.85,27.43a15.4,15.4,0,0,1,.32-4.06,22.92,22.92,0,0,1,4.21-9.39,13.39,13.39,0,0,0-3.9,1,44,44,0,0,0-11.16,6.41,64.62,64.62,0,0,0,2.26-7.57c1-4.26,1.73-9.47.53-13.24-.75,7.3-12.14,19.52-19.9,27.5,0,0,1.71-8.75,5.91-13a34.92,34.92,0,0,0-12.24,8.16,35.49,35.49,0,0,0-7.73,11.79s2.08-.07,5.7,0,8.88.37,15.62,1.13c3.37.38,7.08.84,11.09,1.42,2,.28,4.06.57,6.12.9s4.14.66,6.24,1A98.4,98.4,0,0,1,2033,158c.86.25,1.75.56,2.76.91l3.51,1.25c2.68,1,5.63,1.86,8.47,2.65,1.39.37,2.82.76,4.19,1.09l2,.49,1,.25.51.12.66.12c1.76.34,3.53.65,5.29.94s3.23.34,4.85.49a147.2,147.2,0,0,0,17.29.24c10.68-.4,20.15-1.31,28.35-1.89s15.06-.92,19.91-.8l3.27.13,2.37.25a10.33,10.33,0,0,1,1.56.25c.41.08.76.13,1.05.17a13.84,13.84,0,0,1-1.2-3.49C2138.84,160.87,2138.77,160.52,2138.69,160.15Z"/><path class="cls-1" d="M1970.5,143.38c-1.55-3.57-3-8.45-6.36-15.31,0,0-.15,3.64-.58,8s-1.14,9.55-2.33,12.57c-3.57-2.22-3.39-18.79-13.13-30.18,1.12,7.26,1.76,20.61-6.29,27.77,0,0,2.58-4.72-1.14-14.62a10,10,0,0,0-1.89,2.75,75.17,75.17,0,0,0-5,12.63,39.48,39.48,0,0,1-3-4.53,32.86,32.86,0,0,1-3.94-10.36,35.74,35.74,0,0,1-2.74,3.85,103.88,103.88,0,0,1-10,10.77,23,23,0,0,0,1.16-7.53,24.82,24.82,0,0,0-1.19-7.54,27.79,27.79,0,0,0-4.57-8.43c.78,6.14.18,11.08-2,15.22a20.78,20.78,0,0,1-4.39,5.66,32.38,32.38,0,0,1-6.85,4.5,17.26,17.26,0,0,0,1.4-4.39,12.76,12.76,0,0,0-1.23-8.77,12.39,12.39,0,0,1-2.29,4.22,21.5,21.5,0,0,1-4.14,4,28.23,28.23,0,0,1-7.42,4c-2.63-3.34-2.55-9.2-1.73-15.42s2.32-12.81,3-17.6a44.11,44.11,0,0,0-4.8,7.81c-1.49,2.91-2.93,6.07-4.46,9.16-.76,1.55-1.55,3.07-2.38,4.54a41.05,41.05,0,0,1-2.63,4.1,19.52,19.52,0,0,1-6.64,6,19.8,19.8,0,0,0,1.47-4.16,16.5,16.5,0,0,0,0-8.57s-1.58,1.61-4.11,3.8c-1.27,1.09-2.75,2.24-4.4,3.44a62.35,62.35,0,0,1-5.23,3.47,28.84,28.84,0,0,1,2.13-4.6,30.64,30.64,0,0,1,6.61-8.26s-.55,0-1.55.18l-1.81.28c-.69.1-1.48.23-2.36.4s-1.84.36-2.88.61-2.1.48-3.24.79a54.18,54.18,0,0,0-7.31,2.54c2.26-4.09,6.13-10.66,8.2-17a22.19,22.19,0,0,0,1.36-9.08,9.33,9.33,0,0,0-1.21-3.87,9.86,9.86,0,0,0-3.18-3.19,22.39,22.39,0,0,1-2.5,14.61,21.33,21.33,0,0,1-4.69,5.55,35.9,35.9,0,0,1-6.83,4.43,14.49,14.49,0,0,1,1.29-3.87,19.83,19.83,0,0,1,6.81-7.84,8.82,8.82,0,0,0-1.13-.19,20.55,20.55,0,0,0-3.44-.12c-.78.05-1.65.13-2.6.25a24.85,24.85,0,0,0-3.15.62c-1.13.3-2.34.67-3.61,1.13a38.64,38.64,0,0,0-4,1.83,70.63,70.63,0,0,0,3.37-7.19c1.62-4,3.14-9.12,1.93-13.13-.8,3.59-5,7.87-9.77,12.43s-10.19,9.31-14.79,13a36.25,36.25,0,0,1,1.74-4.83,21.43,21.43,0,0,1,5.42-7.83c-10.16,2.7-19.83,10.78-24.39,18.49,0,0,2.6.15,7.06.51s10.81,1,17.84,2.19a84.07,84.07,0,0,1,10.51,2.47,80.77,80.77,0,0,1,11.23,4.64c4.44,2.12,10,4.92,16.31,7.3a114.64,114.64,0,0,0,19.76,5.56c1.69.38,3.33.55,5,.82l2.5.37c.83.13,1.66.24,2.47.3l4.9.47c.82.07,1.65.17,2.45.21l2.4.12c3.19.15,6.4.34,9.47.3s6.22.07,9.19-.09,6-.2,8.82-.34l8.16-.47c5.36-.32,10.52-.68,15.39-1,9.74-.73,18.32-1.52,24.84-2s11-.69,13.33-.73C1973.63,149.2,1972.05,147,1970.5,143.38Z"/><path class="cls-1" d="M1775.48,106.32s-2.18,14.41-5.16,20.11c-1.54-1.33-1.75-6.09-2.5-12.1s-2.1-13.24-5.64-19.54a53.53,53.53,0,0,1-1.65,13.82c-1.39,5-3.73,9.83-8.45,12.62a9.16,9.16,0,0,0,1.47-3.39c.61-2.35.89-6,.09-11.19a12,12,0,0,0-2.22,2.35,131.92,131.92,0,0,0-7.66,11.16s-.24-.52-.56-1.43a37.86,37.86,0,0,1-1.1-3.72,31.47,31.47,0,0,1-.77-11,30,30,0,0,1-3.51,3,87.84,87.84,0,0,1-12.1,7.44,24,24,0,0,0,3.3-6.84,26.26,26.26,0,0,0-.35-16.85c-1.11,6.08-3.14,10.63-6.22,14s-7.21,5.58-12.37,7a19.46,19.46,0,0,0,2.28-3.94,13.83,13.83,0,0,0,1.1-8.78,13.93,13.93,0,0,1-3,3.57,30,30,0,0,1-11.4,6c-1.58-3.56-.82-9.34.7-15.43s3.84-12.44,5.21-17.08c-9.06,7.51-13.44,24.82-21.16,31.09a27.15,27.15,0,0,0,1-4.28,16.81,16.81,0,0,0-.46-8.45l-3.23,4.3c-1.92,2.54-4.35,5.81-6.71,8.81a36.29,36.29,0,0,1,.93-5,27.2,27.2,0,0,1,4.27-9.47,26.13,26.13,0,0,0-4.87,2.12,38.7,38.7,0,0,0-10.13,8c1.36-9.24,5.61-30-5.68-32.81,4.37,9.92,3.2,19.52-4.9,27.85,0,0-1.19-6.3,3.67-13.74,0,0-5.48.53-15.29,8.2,0,0,4.63-13.47,1.84-20.91-.4,7.32-11.37,20.08-20.34,27.75,0,0,2.08-8.67,6.44-13-9.2,3.33-18.67,11.07-23.46,18.62l6.93.7,18.46,1.78,26.26,2.32c4.77.43,9.64.88,14.43,1.44s9.47,1.23,14.14,2.11c9.26,1.74,19.26,4.49,29.27,7.18,5,1.35,10,2.69,15.12,3.92s10.16,2.35,15.51,3.15c1.35.19,2.68.39,4,.53s2.53.25,3.7.35c2.34.19,4.5.33,6.52.45l10.72.55c6.23.29,10.71.55,13.1.71C1779.14,126.35,1779.93,120.73,1775.48,106.32Z"/><path class="cls-1" d="M1602.05,96.9c-.93-3.74-1.61-8.82-3.59-16.05,0,0-2.59,14.35-5.53,20-1.42-1.36-1.51-6.13-2.14-12.14s-1.81-13.25-5.55-19.56c.11,7.36-1.15,20.61-9,26.77a10.35,10.35,0,0,0,1.13-3.47,28.78,28.78,0,0,0-.51-11.18,9.84,9.84,0,0,0-2,2.52,71.38,71.38,0,0,0-5.78,12,44.14,44.14,0,0,1-2.19-4.82,35.92,35.92,0,0,1-2.54-10.7,36.83,36.83,0,0,1-2.84,3.57,101,101,0,0,1-10,9.81,24.61,24.61,0,0,0,1.72-7.4,26.75,26.75,0,0,0-3.84-16.38c.38,12.34-3.88,19.59-13.79,24.41a18.47,18.47,0,0,0,1.54-4.29,14.13,14.13,0,0,0-.56-8.84,12.93,12.93,0,0,1-2.33,4,21.9,21.9,0,0,1-3.94,3.82,30.66,30.66,0,0,1-6.89,3.72c-2.2-3.43-1.85-9.29-.8-15.47s2.74-12.71,3.61-17.47c-3.42,4.2-6.21,10.67-9.24,16.71a64.26,64.26,0,0,1-5,8.56,18.65,18.65,0,0,1-6.37,5.88,21.66,21.66,0,0,0,1.55-4.14,17.47,17.47,0,0,0,.38-8.46l-1.08,1.09c-.68.66-1.67,1.56-2.89,2.61s-2.69,2.23-4.3,3.41c-.81.59-1.66,1.21-2.52,1.75s-1.77,1.06-2.67,1.55a30.2,30.2,0,0,1,2.32-4.51,35.7,35.7,0,0,1,6.68-8.07s-.52,0-1.45.19-2.23.27-3.9.57a32,32,0,0,0-12,4.36c2.07-4.19,5.79-10.84,7.76-17.23s2.17-12.7-4.12-15.91a20.87,20.87,0,0,1-1.25,14.74c-2,4.29-5.59,7.87-9.89,11.25a17.7,17.7,0,0,1,.89-4,19.84,19.84,0,0,1,5.65-8.62,9.7,9.7,0,0,0-1.07-.06,18.48,18.48,0,0,0-3.23.34,23.5,23.5,0,0,0-5.18,1.73,55.44,55.44,0,0,0-6.75,4,54.11,54.11,0,0,0,2.5-7.51c1.08-4.24,1.81-9.44.94-13.21-.59,3.6-3.09,8.6-7.59,13A33.29,33.29,0,0,1,1460.7,63a40.87,40.87,0,0,1-4.25,2.72,62.87,62.87,0,0,1-8.9,4.07s.28-.48.81-1.23,1.34-1.77,2.29-2.88a28.6,28.6,0,0,1,7.06-6.26c-1.2.12-2.41.21-3.66.39s-2.54.39-3.76.68a34.39,34.39,0,0,0-7.19,2.5,25.12,25.12,0,0,0-6,4,20.34,20.34,0,0,0-4.06,5.11l1,.28c.67.19,1.73.52,3.29,1.09s3.61,1.41,6.09,2.51c1.06.49,3,1.34,4.88,2.12.92.4,2,.79,3,1.19l1.62.61,1.76.59,1.81.58,2,.55c1.31.38,2.68.66,4.06,1,2.73.55,5.3.92,7.08,1.21a44,44,0,0,1,4.35.91c1.43.43,3,.92,4.72,1.61s3.62,1.5,5.54,2.35l3,1.42.76.35,1.06.48,2.28,1,2.3,1,1.15.49,1.15.41,4.62,1.58c.78.28,1.54.48,2.31.69l2.29.61c1.53.39,3.09.85,4.58,1.12,12.12,2.6,23.58,3.45,34.1,4s20.2.76,28.74,1.11,16,.72,21.84,1.19l4.11.31,3.47.32,4.92.46C1604.13,103.1,1603,100.65,1602.05,96.9Z"/><path class="cls-1" d="M1425.57,47.48s-.73,3.58-2,7.83-3,9.19-5,11.9c-1.88-1.48-1.84-6.27-2.28-12.34a78.39,78.39,0,0,0-1.22-9.83,51.77,51.77,0,0,0-1.32-5.18,29.45,29.45,0,0,0-2.32-5.16c-.51,7.37-3.36,20.32-12.84,25.6a9.78,9.78,0,0,0,1.58-3.34,24.64,24.64,0,0,0,.3-11.2,9.82,9.82,0,0,0-2.55,2.3,58.58,58.58,0,0,0-7.45,11.48,47.84,47.84,0,0,1-2.24-5,33.85,33.85,0,0,1-2.48-10.86,43,43,0,0,1-3.47,3.4,142.63,142.63,0,0,1-11.79,9.44,22.2,22.2,0,0,0,2.06-7.35A23,23,0,0,0,1368,32.72c.49,12.38-4.69,19.44-15.68,24.46,0,0,4-7.16.6-13.16,0,0-2,6.92-14.19,12.21-5.41-6.42-1.5-23.42-.5-33-8.06,9-9.73,26.75-18.37,33.84,0,0,2.08-7.41-1.07-12.74,0,0-5.21,7.59-10.44,13.8,0,0,.2-8.5,4.8-14.76A47.74,47.74,0,0,0,1296.28,54c1.2-9.28,4.92-30-7.69-32.76,5.12,9.89,4.35,19.54-4.92,27.88a12.67,12.67,0,0,1-.08-4.08,20.89,20.89,0,0,1,4-9.67,20.79,20.79,0,0,0-4.52,1.22,68.19,68.19,0,0,0-13,6.79,50.42,50.42,0,0,0,2.28-7.61c.93-4.28,1.42-9.51-.09-13.27-.25,3.65-3.41,8.63-8,13.48-1.16,1.23-2.39,2.41-3.71,3.57a44.6,44.6,0,0,1-4.2,3.34c-.74.52-1.5,1-2.28,1.51-.4.24-.77.5-1.2.71l-1.31.61c-.89.39-1.8.76-2.73,1.1-.73.38-1.32.77-2,1.15a33,33,0,0,1,2.49-4.48c.2-.31.42-.62.64-.93s.53-.62.8-.93c.55-.63,1.13-1.26,1.73-1.87a30.87,30.87,0,0,1,3.78-3.33c-1.35.31-2.7.54-4.15.84a36.18,36.18,0,0,0-4.1,1.05,38,38,0,0,0-7.62,3.44,39,39,0,0,0-11.45,10l1.89.3c1.23.2,3,.5,5.23.92s4.81,1,7.55,1.7c.68.19,1.37.38,2.06.59l.67.19,1.11.3,2.26.58c.82.22,1.4.31,2,.44l1.94.37c1.36.27,2.54.43,3.79.62,5,.77,10,1.3,15.34,1.8s10.81.92,16.52,1.33c11.41.79,23.56,1.43,35.87,2l36.52,1.67c5.89.28,11.6.58,17,1s10.43.82,15.18,1.37,9.24,1.2,13.44,1.87l3.34.52c1.15.19,2.31.34,3.43.5,2.25.3,4.4.56,6.4.76l5.35.5c1.55.13,2.72.24,3.65.35a27.43,27.43,0,0,1,3.53.62,24.58,24.58,0,0,1-3.27-8.45C1428.88,59.85,1427.91,54.8,1425.57,47.48Z"/><path class="cls-1" d="M1222.21,43c-1.31-3.85-2.26-9-5-16.43,0,0-3.74,14.16-8,19.54-4.08-3-.23-19.16-10.2-32.44a38.72,38.72,0,0,1-2.55,13.71c-2,4.87-5.25,9.54-11.35,12.11a8,8,0,0,0,1.87-3.33c.77-2.33,1.15-6-.09-11.23a11.6,11.6,0,0,0-3,2.24,80,80,0,0,0-9.39,11s-.34-.53-.84-1.44a37.3,37.3,0,0,1-1.8-3.77,28.25,28.25,0,0,1-2.37-11.13,48.89,48.89,0,0,1-4.36,3c-3,1.94-7.77,4.73-14.29,8.49a20.27,20.27,0,0,0,2.64-7.23,19.11,19.11,0,0,0-.26-7.65,21.39,21.39,0,0,0-4.85-9.06c.25,6.22-1.29,11-4.4,14.88s-7.84,6.83-14.24,9.41a16.59,16.59,0,0,0,1.76-4.35,10.44,10.44,0,0,0-1.38-8.82,12.26,12.26,0,0,1-2.91,4.16c-2.35,2.4-6.47,5.55-13.55,8.39-6.71-6.2-3-23.35-2.17-33-4.71,4.64-7.3,11.42-9.93,18s-5.3,12.89-10.06,16.74a18.82,18.82,0,0,0,.43-4.4,13.1,13.1,0,0,0-2.69-8.22l-3.49,4.79c-2.07,2.85-4.8,6.51-7.45,9.86a25.87,25.87,0,0,1,.24-5.08,22.28,22.28,0,0,1,3.89-10.07s-.65.23-1.76.71a43.77,43.77,0,0,0-4.49,2.24,42.93,42.93,0,0,0-12,9.79c-.14-4.68.13-12.31-1.61-18.83A17,17,0,0,0,1058,7.18a11.68,11.68,0,0,0-4.17-2.48,14.26,14.26,0,0,0-2.65-.62,17.85,17.85,0,0,0-3-.12c4.5,4.11,6.92,8.66,7,13.41a18,18,0,0,1-1.4,7.29,28.13,28.13,0,0,1-4.72,7.66,10.3,10.3,0,0,1-1.1-3.94A18.41,18.41,0,0,1,1050.33,18s-.46.14-1.31.5a34.6,34.6,0,0,0-3.69,1.85c-3.14,1.79-7.69,4.75-14.1,9.11,0,0,.28-.86.62-2.28a41.89,41.89,0,0,0,.94-5.58c.44-4.38.17-9.61-2-13.13.25,3.66-2.65,9-7.6,14.39-2.37,2.75-5,5.58-7.57,8.35s-5.12,5.46-7.47,7.87a29.48,29.48,0,0,1,.88-5.13,19.54,19.54,0,0,1,4.7-9,51.24,51.24,0,0,0-15.92,11,57.08,57.08,0,0,0-10.44,13.64L997,48.06c3-.48,6.48-1,10.29-1.53s8-.89,12.65-1.08c1.16-.05,2.37-.08,3.6-.11l3.86,0,4.85-.06c1.71-.07,3.41-.11,5.2-.23,3.58-.2,7.44-.62,11-1.14s6.59-1,9.6-1.43,6-.71,9.16-1,6.45-.46,9.84-.6c6.76-.31,13.82-.46,21-.51,14.35-.07,29.16,0,42.63.74,6.78.37,13.06.94,19.13,1.8,1.52.2,3.07.46,4.61.69l4.77.78c3.21.54,6.58,1.06,9.83,1.52s6.47.85,9.54,1.18l8.37.88,14.32,1.56c8.47,1,14.53,1.81,17.69,2.3A14.92,14.92,0,0,1,1222.21,43Z"/><path class="cls-1" d="M978.31,42.93C976.13,39.53,974,34.8,970,28.1c0,0-.08,3.65-.56,8.08s-1.36,9.61-2.92,12.68c-2.25-1.06-3.22-5.75-5-11.59A64.23,64.23,0,0,0,957.91,28a30.5,30.5,0,0,0-6.59-9.19c1.29,7.28,1.46,20.51-7.36,28a8.92,8.92,0,0,0,.85-3.64,22.33,22.33,0,0,0-2.54-10.93,10.47,10.47,0,0,0-2.15,2.88,61.59,61.59,0,0,0-5.24,13,40.64,40.64,0,0,1-3.7-4.27,29.31,29.31,0,0,1-5.21-10,35.93,35.93,0,0,1-3,4.09c-1.11,1.34-2.55,3-4.48,4.91a79,79,0,0,1-7.35,6.51,12.18,12.18,0,0,0,.73-2.11,20.51,20.51,0,0,0,.65-5.48c0-4.47-1.71-10.23-6.74-15.82.83,6.14.14,11.11-2.51,15.21a19.49,19.49,0,0,1-2.35,2.95,22.83,22.83,0,0,1-3.1,2.56,34.6,34.6,0,0,1-8.44,4.19,15.36,15.36,0,0,0,1.9-4.3,11.13,11.13,0,0,0-1-8.84,11.25,11.25,0,0,1-2.93,4,24.61,24.61,0,0,1-5.1,3.7,40.18,40.18,0,0,1-8.81,3.37c-2.83-3.56-2.58-9.43-1.44-15.6s3.16-12.64,4.17-17.37a56.08,56.08,0,0,0-11.85,16.59c-1.51,3.2-2.89,6.36-4.34,9.15a27.59,27.59,0,0,1-5.06,7.24,23,23,0,0,0,.35-4.39,13.69,13.69,0,0,0-2.45-8.21L843.4,51.13a28.33,28.33,0,0,1,0-5.08,22.67,22.67,0,0,1,3.11-10.18s-.59.25-1.59.76a35.17,35.17,0,0,0-4,2.39,45.91,45.91,0,0,0-5.28,4.16,43.74,43.74,0,0,0-5.4,6c-.63-9.29-.19-30.66-15.41-30.31,4.09,4.17,6.34,8.7,6.57,13.45S819.85,42.06,816,47.2a11.86,11.86,0,0,1-1.05-4,18.77,18.77,0,0,1,2-10.35,22.67,22.67,0,0,0-4.65,2.29,61,61,0,0,0-12.1,10.12,50.9,50.9,0,0,0,.25-8c-.22-4.38-1.13-9.55-4-12.69.81,3.58-1.33,9.3-4.67,15.42a127.72,127.72,0,0,1-12,17.85s-.26-9,3.77-14.53c-10.32,6.28-19.18,17.1-22.29,26l8.49-1.85c5.42-1.14,13.2-2.81,22.59-4.61s20.39-3.81,32.17-5.51c2.93-.38,5.94-.85,8.94-1.18l4.54-.53,4.54-.44A149.76,149.76,0,0,1,860,54.54l1.9.1,1,0c.31,0,.53.07.8.1l1.56.19.39,0,.68.1,1.36.22,5.44.84c1.84.26,3.7.47,5.54.7a185.2,185.2,0,0,0,22.51,1.36,185,185,0,0,0,21.53-1.44c6.65-.8,12.54-1.7,17.92-2.38s10.3-1.22,14.86-1.54l7-.51q3.56-.28,6.75-.58c8.49-.81,14.81-1.74,18.1-2.22A13.86,13.86,0,0,1,978.31,42.93Z"/><path class="cls-1" d="M742.36,49.51s1.41,14.55-.6,21c-4.52-1.51-6.41-18-19.37-27.44,2.33,7,4.78,20.09-3.39,28.76,0,0,2.28-5.18-3.48-14.24,0,0-2.9,2.76-5.58,16.64,0,0-7.58-5.84-10.4-13.21,0,0-2.7,6-12.14,17.33,0,0,3.13-13.17-9.74-22,2.1,5.82,2.33,10.84.71,15.43a18,18,0,0,1-1.57,3.37,17.36,17.36,0,0,1-2.41,3.25,23.09,23.09,0,0,1-3.79,3.08,49.4,49.4,0,0,1-4.17,2.71,15.31,15.31,0,0,0,1.09-4.57,11.13,11.13,0,0,0-2.62-8.51,11.91,11.91,0,0,1-2.12,4.48c-1.87,2.7-5.37,6.29-11.79,9.77-6.85-5.62-4.74-23-5-32.7-7.52,10-7.16,27.83-15.79,36,0,0,1.36-7.61-2.76-12.5,0,0-4.8,8.17-9.77,15,0,0-.83-8.46,3.46-15.25A43.59,43.59,0,0,0,615.45,79a52.61,52.61,0,0,0-11.51,9.64c.12-9.36,1.7-30.45-12.67-31.53,7,9.15,7.28,18.83-1.72,28.28,0,0-2.49-6,2.44-14.14a23.37,23.37,0,0,0-4.81,1.81,68.39,68.39,0,0,0-13.25,8.54,48.07,48.07,0,0,0,1.32-7.88c.36-4.37.13-9.62-2.19-13.1.63,7.32-11.31,21.48-21.55,30.27,0,0,1.34-8.88,6.21-13.7A65.58,65.58,0,0,0,541.9,86.6a50.38,50.38,0,0,0-11.28,12l9-.12c5.72-.11,13.9-.31,23.77-.65,19.74-.71,46.16-2,73.48-4,6.85-.51,13.73-1,20.7-1.7,1.74-.16,3.46-.31,5.25-.51l2.65-.28c.88-.09,1.76-.19,2.72-.32,1.94-.26,3.52-.4,6.14-.88s4.33-.92,6-1.31l36.06-9c21.86-5.39,38.72-9.16,44.85-10.51C752.57,67.52,752,61.85,742.36,49.51Z"/><path class="cls-1" d="M522.29,90.85c-1.81-3.66-3.41-8.61-6.8-15.74,0,0-2.16,14.48-6.15,20.22-2.23-1.31-2.7-6.08-3.91-12.09s-3.05-13.24-8.7-19.5c.62,7.38-.67,20.56-10.66,27.18a9,9,0,0,0,1.25-3.55c.39-2.41.39-6.08-1.55-11.12a10.68,10.68,0,0,0-2.56,2.67c-1.63,2.12-4,6-6.56,12.54,0,0-.4-.46-1-1.23s-1.49-1.89-2.42-3.25a32,32,0,0,1-4.9-10.22,49.06,49.06,0,0,1-3.35,4c-1.18,1.32-2.69,3-4.58,5s-4.15,4.27-6.93,6.9a20.28,20.28,0,0,0-1.31-15,24.34,24.34,0,0,0-6.53-7.72c1.56,6,1.28,11-1,15.45s-6.58,8.36-14,11.21a9.53,9.53,0,0,0,.69-1.24,13.69,13.69,0,0,0,1.07-3.2,10.61,10.61,0,0,0-1.89-8.73,6,6,0,0,1-.53,1.18,13.59,13.59,0,0,1-2.33,3,22.77,22.77,0,0,1-5.44,3.85,87.6,87.6,0,0,1-8.07,3.94c-1.39-1.61-2.1-3.79-2.69-6.42a44.81,44.81,0,0,1-.92-8.78,76,76,0,0,1,.54-9.45c.34-3.07.8-6,1-8.38a22.85,22.85,0,0,0-2.25,1.88,20.93,20.93,0,0,0-2.15,2.17c-.61.73-1.31,1.57-1.87,2.4a18.79,18.79,0,0,0-1.48,2.57,20,20,0,0,0-1.76,5.4,33.16,33.16,0,0,0-.5,5.39,85.9,85.9,0,0,1-.48,10.28,19.89,19.89,0,0,1-3.52,9,16.88,16.88,0,0,0-.9-4.33,13.82,13.82,0,0,0-5.1-7l-.54,1.57c-.36,1-.88,2.37-1.54,4s-1.49,3.53-2.4,5.48-2,4-2.85,5.93a25.13,25.13,0,0,1-.86-5,23.11,23.11,0,0,1,1.55-10.71s-.57.37-1.53,1.09-2.3,1.78-3.81,3.15a50.53,50.53,0,0,0-9.7,12c-1-4.58-2.21-12.12-5.09-18.2s-7.55-10.63-14.65-9.66c4.37,3.74,7.28,7.9,8.12,12.57a17,17,0,0,1-.35,7.39,24.8,24.8,0,0,1-3.92,8.12,10.34,10.34,0,0,1-1.43-3.82,19.36,19.36,0,0,1,1.21-10.57,27.36,27.36,0,0,0-4.56,2.76A138.82,138.82,0,0,0,337,106.79a40.83,40.83,0,0,0,.59-8c-.1-4.42-1-9.54-3.56-12.82.67,3.59-1.46,9.26-5.56,15.06a74.94,74.94,0,0,1-15.84,16,32.66,32.66,0,0,1,1.49-5,24.06,24.06,0,0,1,5.32-8.67,93.81,93.81,0,0,0-17.16,9.11,47.45,47.45,0,0,0-12.07,11.63l9.16.18,5.09.08c1.93,0,4,.09,6.25,0,4.51,0,9.64-.12,15.38-.54a172.27,172.27,0,0,0,18.73-2.26,208.07,208.07,0,0,0,20.29-4.74c6.65-1.87,13-3.79,19.38-5.49l5.16-1.39,2.81-.77,2.88-.86c.95-.28,1.93-.59,2.91-.92s2-.62,2.95-1c2-.69,4-1.46,5.82-2.18s3.28-1.32,3.65-1.42-.18,0,.57-.08l.21,0h1.09c.21,0,.6,0,.92,0l1,0c.66,0,1.5.08,2.24.12s1.58.11,2.41.18l2.59.2,3.38.2c1.12.09,2.25.1,3.38.1s2.25,0,3.37,0c2.19-.1,4.44-.15,6.52-.36,1.05-.1,2.14-.17,3.14-.29l3-.36c1-.11,1.92-.25,2.86-.38l2.76-.4,5.16-.79,4.83-.73c1.58-.23,3.1-.43,4.6-.62,6-.76,11.71-1.2,17.2-1.44s10.74-.22,15.62-.08l3.59.1,3.62.13c2.54.1,4.92.16,7.14.2,8.86.17,15.32.1,18.78.07A14.31,14.31,0,0,1,522.29,90.85Z"/><path class="cls-1" d="M280.55,116.2c-2.16-3.65-4.06-8.61-8.46-15.63,0,0-.56,3.63-1.65,8s-2.66,9.49-4.93,12.45c-2.78-1.2-3.7-6-5.44-11.93a75.82,75.82,0,0,0-3.44-9.67,42.5,42.5,0,0,0-6.22-10.18,32.85,32.85,0,0,1-2.74,13.69,20.24,20.24,0,0,1-5,6.76,27.14,27.14,0,0,1-8.36,4.83,8.3,8.3,0,0,0,2-3.27c.85-2.3,1.45-5.92-.1-11.27a5,5,0,0,0-.89.4,17.05,17.05,0,0,0-2.61,1.8c-2.24,1.9-5.51,5.43-8.17,12,0,0-.4-.44-1.07-1.22l-1.18-1.42-1.52-1.77c-2.15-2.66-4.93-6-6.21-9.81,0,0-.29.37-.91,1.1s-1.58,1.89-2.92,3.36c-2.68,3-6.8,7.5-12.82,13.72a17.54,17.54,0,0,0,.24-7.82c-.85-4.38-3.64-9.78-11.92-13.43,2.55,5.67,2.64,10.78.53,15.66s-6.51,9.62-13.23,14.49a14.26,14.26,0,0,0,.66-4.79,9.08,9.08,0,0,0-4.42-7.83s-.08,1.85-2,5a30.41,30.41,0,0,1-4.61,5.63,50.9,50.9,0,0,1-9.17,7c-5-2-7.09-7.55-8.18-13.71s-1.33-13-2.06-17.78c-3.61,5.58-5.23,12.72-7.39,19.68s-4.63,13.67-9.82,18.2a16,16,0,0,0,0-4.44,11.73,11.73,0,0,0-4.19-7.75l-3.54,5.31c-2.1,3.14-4.84,7.22-7.52,11a21.12,21.12,0,0,1-.36-5.08,20.36,20.36,0,0,1,3.3-10.64,53,53,0,0,0-7,4,55.74,55.74,0,0,0-13.12,11.86c-.66-4.64-1.22-12.28-4-18.47s-7.89-10.91-17.55-9.39c5.48,3.5,8.62,7.67,9.21,12.39s-1.37,10-6,15.9a9.36,9.36,0,0,1-1.58-3.78c-.5-2.48-.44-6.11,2-10.79a34.85,34.85,0,0,0-5.79,3.15,86.36,86.36,0,0,0-14.86,12.42,39.79,39.79,0,0,0-.11-8.1c-.52-4.38-2-9.43-5.72-12.07,1.21,3.46-1.17,9.62-5.13,16.39a112.19,112.19,0,0,1-6.93,10.38c-1.28,1.72-2.64,3.42-4.08,5.05s-2.92,3.2-4.32,4.64a27.55,27.55,0,0,1,.59-5.3,24.2,24.2,0,0,1,4.37-10c-3.22,2-6.46,4.2-9.49,6.52a85.18,85.18,0,0,0-8.41,7.36c-5.1,5.09-9.08,10.41-11.23,15.09l11-2.81,12.72-3.2,3.93-1c1.38-.34,2.92-.75,4.43-1.17,3-.84,5.94-1.69,9-2.58,12.19-3.54,26.24-7.76,41.17-11.48,7.48-1.86,15.2-3.58,23.13-5s16-2.64,24.82-3.85c2.2-.3,4.53-.64,6.93-1s4.91-.84,7.37-1.35c4.92-1,9.62-2.21,14.06-3.44,9-2.46,17.35-5,25.62-7.59,7.95-2.44,15.61-4.68,22.63-6.3,1.79-.45,3.41-.72,5.08-1.08.82-.17,1.57-.27,2.36-.4l1.16-.2,1.08-.13c.7-.07,1.46-.21,2.1-.24l1.94-.13,1.8,0,1.76.06,1.86.16,2.09.24,4.94.71,2.76.39,2.82.35c1.91.24,3.54.4,5.36.58,3.51.33,7.26.57,10.74.61s6.4,0,8.95-.08c5.11-.11,9.4-.14,13-.13l8.53.07C285.05,122.18,282.69,119.84,280.55,116.2Z"/></g></g></svg>