<svg xmlns="http://www.w3.org/2000/svg" xmlns:xlink="http://www.w3.org/1999/xlink" viewBox="0 0 3000 630.97"><defs><style>.cls-1{fill:url(#linear-gradient);}.cls-2{fill:url(#linear-gradient-2);}.cls-3{fill:url(#linear-gradient-3);}.cls-4{fill:url(#linear-gradient-4);}.cls-5{fill:url(#linear-gradient-5);}.cls-6{fill:url(#linear-gradient-6);}.cls-7{fill:url(#linear-gradient-7);}.cls-8{fill:url(#linear-gradient-8);}.cls-9{fill:url(#linear-gradient-9);}.cls-10{fill:url(#linear-gradient-10);}.cls-11{fill:url(#linear-gradient-11);}.cls-12{fill:url(#linear-gradient-12);}.cls-13{fill:url(#linear-gradient-13);}.cls-14{fill:url(#linear-gradient-14);}.cls-15{fill:url(#linear-gradient-15);}.cls-16{fill:url(#linear-gradient-16);}.cls-17{fill:url(#linear-gradient-17);}.cls-18{fill:url(#linear-gradient-18);}.cls-19{fill:url(#linear-gradient-19);}.cls-20{fill:url(#linear-gradient-20);}.cls-21{fill:url(#linear-gradient-21);}.cls-22{fill:url(#linear-gradient-22);}.cls-23{fill:url(#linear-gradient-23);}.cls-24{fill:url(#linear-gradient-24);}.cls-25{fill:url(#linear-gradient-25);}.cls-26{fill:url(#linear-gradient-26);}.cls-27{fill:url(#linear-gradient-27);}.cls-28{fill:url(#linear-gradient-28);}.cls-29{fill:url(#linear-gradient-29);}.cls-30{fill:url(#linear-gradient-30);}.cls-31{fill:url(#linear-gradient-31);}.cls-32{fill:url(#linear-gradient-32);}.cls-33{fill:url(#linear-gradient-33);}.cls-34{fill:url(#linear-gradient-34);}.cls-35{fill:url(#linear-gradient-35);}.cls-36{fill:url(#linear-gradient-36);}.cls-37{fill:url(#linear-gradient-37);}.cls-38{fill:url(#linear-gradient-38);}</style><linearGradient id="linear-gradient" x1="604" y1="144.95" x2="604" y2="415.36" gradientUnits="userSpaceOnUse"><stop offset="0" stop-color="#a2114a"/><stop offset="1" stop-color="#93004a"/></linearGradient><linearGradient id="linear-gradient-2" x1="686.34" y1="144.95" x2="686.34" y2="415.36" xlink:href="#linear-gradient"/><linearGradient id="linear-gradient-3" x1="1028.99" y1="144.95" x2="1028.99" y2="415.36" xlink:href="#linear-gradient"/><linearGradient id="linear-gradient-4" x1="582.8" y1="144.95" x2="582.8" y2="415.36" xlink:href="#linear-gradient"/><linearGradient id="linear-gradient-5" x1="1082.74" y1="144.95" x2="1082.74" y2="415.36" xlink:href="#linear-gradient"/><linearGradient id="linear-gradient-6" x1="522.1" y1="144.95" x2="522.1" y2="415.36" xlink:href="#linear-gradient"/><linearGradient id="linear-gradient-7" x1="433.3" y1="144.95" x2="433.3" y2="415.36" xlink:href="#linear-gradient"/><linearGradient id="linear-gradient-8" x1="640.6" y1="144.95" x2="640.6" y2="415.36" xlink:href="#linear-gradient"/><linearGradient id="linear-gradient-9" x1="763.83" y1="144.95" x2="763.83" y2="415.36" xlink:href="#linear-gradient"/><linearGradient id="linear-gradient-10" x1="374.48" y1="144.95" x2="374.48" y2="415.36" xlink:href="#linear-gradient"/><linearGradient id="linear-gradient-11" x1="798.5" y1="144.95" x2="798.5" y2="415.36" xlink:href="#linear-gradient"/><linearGradient id="linear-gradient-12" x1="312.16" y1="144.95" x2="312.16" y2="415.36" xlink:href="#linear-gradient"/><linearGradient id="linear-gradient-13" x1="243.37" y1="144.95" x2="243.37" y2="415.36" xlink:href="#linear-gradient"/><linearGradient id="linear-gradient-14" x1="104.21" y1="144.95" x2="104.21" y2="415.36" xlink:href="#linear-gradient"/><linearGradient id="linear-gradient-15" x1="735.24" y1="144.95" x2="735.24" y2="415.36" xlink:href="#linear-gradient"/><linearGradient id="linear-gradient-16" x1="841.94" y1="144.95" x2="841.94" y2="415.36" xlink:href="#linear-gradient"/><linearGradient id="linear-gradient-17" x1="185.12" y1="144.95" x2="185.12" y2="415.36" xlink:href="#linear-gradient"/><linearGradient id="linear-gradient-18" x1="936.25" y1="144.95" x2="936.25" y2="415.36" xlink:href="#linear-gradient"/><linearGradient id="linear-gradient-19" x1="982.88" y1="144.95" x2="982.88" y2="415.36" xlink:href="#linear-gradient"/><linearGradient id="linear-gradient-20" x1="2371" y1="116.46" x2="2371" y2="483.79" xlink:href="#linear-gradient"/><linearGradient id="linear-gradient-21" x1="2449.69" y1="116.46" x2="2449.69" y2="483.79" xlink:href="#linear-gradient"/><linearGradient id="linear-gradient-22" x1="2107.69" y1="116.46" x2="2107.69" y2="483.79" xlink:href="#linear-gradient"/><linearGradient id="linear-gradient-23" x1="2536.68" y1="116.46" x2="2536.68" y2="483.79" xlink:href="#linear-gradient"/><linearGradient id="linear-gradient-24" x1="2074.4" y1="116.46" x2="2074.4" y2="483.79" xlink:href="#linear-gradient"/><linearGradient id="linear-gradient-25" x1="2583.39" y1="116.46" x2="2583.39" y2="483.79" xlink:href="#linear-gradient"/><linearGradient id="linear-gradient-26" x1="2698.18" y1="116.46" x2="2698.18" y2="483.79" xlink:href="#linear-gradient"/><linearGradient id="linear-gradient-27" x1="2500.09" y1="116.46" x2="2500.09" y2="483.79" xlink:href="#linear-gradient"/><linearGradient id="linear-gradient-28" x1="2355.65" y1="116.46" x2="2355.65" y2="483.79" xlink:href="#linear-gradient"/><linearGradient id="linear-gradient-29" x1="2733.91" y1="116.46" x2="2733.91" y2="483.79" xlink:href="#linear-gradient"/><linearGradient id="linear-gradient-30" x1="2303.37" y1="116.46" x2="2303.37" y2="483.79" xlink:href="#linear-gradient"/><linearGradient id="linear-gradient-31" x1="2780.73" y1="116.46" x2="2780.73" y2="483.79" xlink:href="#linear-gradient"/><linearGradient id="linear-gradient-32" x1="2827.03" y1="116.46" x2="2827.03" y2="483.79" xlink:href="#linear-gradient"/><linearGradient id="linear-gradient-33" x1="2883.03" y1="116.46" x2="2883.03" y2="483.79" xlink:href="#linear-gradient"/><linearGradient id="linear-gradient-34" x1="2401.95" y1="116.46" x2="2401.95" y2="483.79" xlink:href="#linear-gradient"/><linearGradient id="linear-gradient-35" x1="2173.04" y1="116.46" x2="2173.04" y2="483.79" xlink:href="#linear-gradient"/><linearGradient id="linear-gradient-36" x1="2934.36" y1="116.46" x2="2934.36" y2="483.79" xlink:href="#linear-gradient"/><linearGradient id="linear-gradient-37" x1="2270.95" y1="116.46" x2="2270.95" y2="483.79" xlink:href="#linear-gradient"/><linearGradient id="linear-gradient-38" x1="2136.61" y1="116.46" x2="2136.61" y2="483.79" xlink:href="#linear-gradient"/></defs><g id="Layer_2" data-name="Layer 2"><g id="trees"><path class="cls-1" d="M0,150.3c20-2,25,11.17,31.5,11.17s22.51,1.89,32,0,4.07-2.42,17.33,4.5,21.67,9,36.67,9,11.83,1.76,25,0,4.5,11.5,17,16,23,4.5,34,6.5,22.45-.16,34.5,0,14.5,9.5,22,11.5,12.5,7.5,21.5,10,30,3,38.5,5,5,6,18,12.5,25-3,35.5-3,8,8,19.5,14,27,4.5,32.5,8,11.5,18,24,19.5,28-4.5,38.5-4.5,23.5,13.5,30,14,12,6.5,22.5,8.5,32.5-5.5,43.5-5,12.5,18.5,24.5,18,21-1,36,4,10.5,9,17.5,10,35.5,1,42.5,0-3,6,17.5,9.5,27-7.2,47-3.85,8,13.33,35,19.06,56-7.23,71-8.47,24.9,11.22,45,13.65,33.35,1.52,58.18,4.82S1015,368.94,1041,372.46s59,8.63,75,6.57,92,19.2,92,19.2V631H0Z"/><path class="cls-2" d="M681.22,396.24v33h13.24s1.25-38,0-43.18,22.7,12.67,19.5,8.77-9.48-9.19-11-12.25,19.41,12.44,17.37,9.1-12.91-12.44-15.27-16.34,15,5.43,12.67,3.34-8.36-10.31-11-12.54,18,3.21,11.15,0-11.7-11.7-13.79-15.93,23.54,8.83,19.5,6.74a76.91,76.91,0,0,1-12.82-9.19c-1.81-1.81,10.31,2.5,8.36,1.39s-9.61-9.75-11.28-13.37,13.37,5.57,8.77,0-1.67-10-5.43-14.63,8.36-.69,5.43-3.62-5.71-6.82-9.05-9.33,7.38-.56,3.76-4.46,16.44,4.46,9.62,0-8.51-10.86-12-14.9,11.14,2.09,8.64,0-3.07-3.2-5.43-7.1,10.86,2.64,8.49,0-5.71-6.27-7.8-9.06,7.8,4,5.29,1.26-7.93-11.42-9.75-13.23,6.55,1.81,4.44,0-5-9.75-7.92-12.82,11.7,4.74,7,1.12-7.11-11-9.75-14.07,2.5-.56-.14-2.79-6.13-15.32-4.46-13.79,12,3.35,11.42,1.4-2.64-2.93-3.34-4.32,1-2.23.83-2.79-2.36-2.09-4.31-4.18,1.53-1.95,0-3.76-5.43-9.47-7.11-11.84,1.68-2.5-1-6.68-6.49-23.54-7.94-23.54c-2.09,0-12,24-11.93,26.05s3.8-.1,3.53,1.95-5.85,13.27-9.48,17.82,5.2-3,5-.18-4.18,9.75-5.85,12.44,4-1.67,3.43.19-6.12,7.24-9,9.38,9.47-4.83,8.91-3.53-2.13,12.35-3.81,14.39,2.79-1.95,2.7-.93-4,7.15-5.57,9.94,8.17-7.25,8-5.3-4.08,9.75-6,12.26,7.24-4.27,6.77-1.39-6.31,12.72-9.47,17,5.3-4.46,5.48-3.34-7.71,15.6-12,21.63,8.36-6.78,8.45-4.83-7.52,9.94-10.12,11.89,5.94-3.44,5.57-1.67-6.68,8.63-11.14,11.42,10.49-7.52,10.68-5.2-6.13,9.38-9.19,11.88,11.79-6.87,13.37-5.84-7.34,11.79-10.77,14.76,10-5.48,10.12-3.62-6.87,16-12,20.8,11-9.1,12.16-8.36-2.41,4.74-4.83,8.73,7.43-2.14,7.25.28-2.7,6-8.55,12.16,6.23-3.71,7-1.39S660.15,362.25,656,366s7.52-4.55,7.61-3.44-5.1,6.13-9.38,13.09,7.25-7.33,9.1-3-4.45,16.9-8.82,20.15,10.77-6,11.24-5.11-8.64,8.27-15.88,10.5,20.69-4.73,27.47-9c.14-.09.27-.17.39-.26C683.73,384.63,681.22,393,681.22,396.24Z"/><path class="cls-3" d="M1023.87,425.58v33h13.23s1.26-38,0-43.18,22.71,12.68,19.5,8.78-9.47-9.2-11-12.26S1065,424.37,1063,421s-12.9-12.44-15.26-16.34,15,5.43,12.66,3.34-8.35-10.31-11-12.54,18,3.21,11.14,0-11.7-11.7-13.79-15.93,23.54,8.83,19.5,6.74a76.78,76.78,0,0,1-12.81-9.19c-1.81-1.81,10.31,2.51,8.36,1.39s-9.61-9.75-11.29-13.37,13.37,5.57,8.78,0-1.67-10-5.43-14.62,8.35-.7,5.43-3.63-5.71-6.82-9-9.33,7.38-.56,3.76-4.46,16.43,4.46,9.61,0-8.5-10.86-12-14.9,11.14,2.09,8.63,0-3.06-3.2-5.43-7.1,10.87,2.64,8.5,0-5.71-6.27-7.8-9.06,7.8,4,5.29,1.26-7.94-11.42-9.75-13.23,6.55,1.81,4.43,0-5-9.75-7.91-12.82,11.7,4.74,7,1.12-7.1-11-9.75-14.07,2.51-.56-.14-2.79-6.12-15.32-4.45-13.79,12,3.35,11.42,1.4-2.65-2.93-3.34-4.32,1-2.23.83-2.79-2.37-2.09-4.32-4.17,1.54-2,0-3.77-5.43-9.47-7.1-11.83,1.67-2.51-1-6.69S1030.2,192,1028.75,192c-2.09,0-12,24-11.94,26.05s3.81-.1,3.53,1.95-5.85,13.28-9.47,17.83,5.2-3,5-.19-4.18,9.75-5.85,12.44,4-1.67,3.43.19-6.13,7.24-9,9.38,9.48-4.83,8.92-3.53-2.14,12.35-3.81,14.39,2.79-1.95,2.69-.93-4,7.15-5.57,9.94,8.17-7.25,8-5.3-4.09,9.75-6,12.26,7.25-4.27,6.78-1.39-6.31,12.72-9.47,17,5.29-4.46,5.48-3.34-7.71,15.6-12,21.63,8.36-6.77,8.45-4.82-7.52,9.93-10.12,11.88,5.94-3.43,5.57-1.67-6.69,8.63-11.14,11.42,10.49-7.52,10.68-5.2-6.13,9.38-9.2,11.89,11.8-6.88,13.37-5.85-7.33,11.79-10.77,14.76,10-5.48,10.12-3.62-6.87,16-12,20.8,10.95-9.1,12.16-8.36-2.41,4.74-4.83,8.73,7.43-2.14,7.24.28-2.69,6-8.54,12.16,6.22-3.71,7-1.39-4.65,10.21-8.83,13.93,7.53-4.55,7.62-3.44-5.11,6.13-9.38,13.09,7.24-7.33,9.1-3-4.46,16.9-8.82,20.15,10.77-6,11.23-5.1-8.63,8.26-15.87,10.49,20.68-4.73,27.47-9l.38-.26C1026.38,414,1023.87,422.33,1023.87,425.58Z"/><path class="cls-4" d="M587.92,359.71v33H574.69s-1.26-38,0-43.18-22.71,12.68-19.5,8.78,9.47-9.19,11-12.26-19.41,12.45-17.36,9.1,12.9-12.44,15.26-16.34-15,5.43-12.66,3.34,8.35-10.3,11-12.53-18,3.2-11.14,0,11.7-11.7,13.79-15.94-23.54,8.83-19.5,6.74a76.21,76.21,0,0,0,12.81-9.19c1.81-1.81-10.31,2.51-8.36,1.39s9.61-9.74,11.29-13.37-13.38,5.57-8.78,0,1.67-10,5.43-14.62-8.35-.7-5.43-3.62,5.71-6.83,9.05-9.33-7.38-.56-3.76-4.46-16.43,4.46-9.61,0,8.5-10.87,12-14.9-11.14,2.08-8.63,0,3.06-3.21,5.43-7.11-10.87,2.65-8.5,0,5.71-6.27,7.8-9.05-7.8,4-5.29,1.25S559,226,560.76,224.19s-6.55,1.81-4.43,0,5-9.75,7.91-12.81-11.7,4.73-7,1.11,7.1-11,9.75-14.07-2.51-.55.14-2.78,6.12-15.32,4.45-13.79-12,3.34-11.42,1.39,2.65-2.92,3.34-4.32-1-2.23-.83-2.78,2.37-2.09,4.32-4.18-1.54-2,0-3.76,5.43-9.47,7.1-11.84-1.67-2.51,1-6.69,6.48-23.54,7.93-23.54c2.09,0,12,24,11.94,26.05s-3.81-.09-3.53,1.95,5.85,13.28,9.47,17.83-5.2-3-5-.19,4.18,9.75,5.85,12.45-4-1.68-3.43.18,6.13,7.24,9,9.38-9.48-4.83-8.92-3.53,2.14,12.35,3.81,14.39-2.79-1.95-2.69-.92,4,7.15,5.57,9.93-8.17-7.24-8-5.29,4.09,9.75,6,12.26-7.25-4.28-6.78-1.4,6.31,12.72,9.47,17-5.29-4.45-5.48-3.34,7.71,15.6,12,21.64-8.36-6.78-8.45-4.83,7.52,9.93,10.12,11.88-5.94-3.43-5.57-1.67,6.69,8.64,11.14,11.42-10.49-7.52-10.68-5.2,6.13,9.38,9.2,11.89-11.8-6.87-13.37-5.85,7.33,11.79,10.77,14.76-10-5.47-10.12-3.62,6.87,16,12,20.8-11-9.1-12.16-8.35,2.41,4.73,4.83,8.72-7.43-2.13-7.24.28,2.69,6,8.54,12.17-6.22-3.72-7-1.4,4.65,10.22,8.83,13.93-7.53-4.55-7.62-3.43,5.11,6.12,9.38,13.09-7.24-7.34-9.1-3,4.46,16.9,8.82,20.15-10.77-6-11.23-5.11,8.63,8.26,15.87,10.49-20.68-4.73-27.47-9l-.38-.25C585.41,348.11,587.92,356.46,587.92,359.71Z"/><path class="cls-5" d="M1087.86,403.29v33h-13.23s-1.25-38,0-43.18-22.7,12.68-19.5,8.78,9.47-9.19,11-12.26-19.4,12.44-17.36,9.1,12.91-12.44,15.27-16.34-15,5.43-12.67,3.34,8.36-10.31,11-12.53-18,3.2-11.14,0,11.7-11.7,13.79-15.94-23.54,8.83-19.5,6.74a76.78,76.78,0,0,0,12.81-9.19c1.81-1.81-10.3,2.51-8.35,1.39s9.61-9.75,11.28-13.37-13.37,5.57-8.78,0,1.67-10,5.44-14.62-8.36-.7-5.44-3.62,5.71-6.83,9.06-9.34-7.39-.55-3.76-4.45-16.44,4.45-9.62,0,8.5-10.87,12-14.91-11.14,2.09-8.63,0,3.06-3.2,5.43-7.1-10.86,2.65-8.5,0,5.71-6.27,7.8-9.05-7.8,4-5.29,1.25,7.94-11.42,9.75-13.23-6.55,1.81-4.43,0,5-9.75,7.91-12.82-11.7,4.74-7,1.12,7.1-11,9.75-14.07-2.51-.56.14-2.78,6.13-15.33,4.46-13.79-12,3.34-11.43,1.39,2.65-2.93,3.35-4.32-1-2.23-.84-2.78,2.37-2.09,4.32-4.18-1.53-1.95,0-3.76,5.43-9.47,7.1-11.84-1.67-2.51,1-6.69,6.48-23.54,7.94-23.54c2.09,0,12,24,11.93,26s-3.81-.09-3.53,2,5.85,13.28,9.47,17.83-5.2-3-5-.19,4.18,9.75,5.85,12.44-4-1.67-3.44.19,6.13,7.24,9,9.38-9.47-4.83-8.92-3.53,2.14,12.35,3.81,14.39-2.78-1.95-2.69-.93,4,7.15,5.57,9.94-8.17-7.24-8-5.29,4.09,9.75,6,12.25-7.24-4.27-6.78-1.39,6.32,12.72,9.47,17-5.29-4.45-5.48-3.34,7.71,15.6,12,21.64-8.35-6.78-8.45-4.83,7.52,9.93,10.12,11.88-5.94-3.43-5.57-1.67,6.69,8.64,11.14,11.42-10.49-7.52-10.67-5.2,6.13,9.38,9.19,11.89-11.79-6.87-13.37-5.85,7.33,11.79,10.77,14.76-10-5.48-10.12-3.62,6.87,16,12,20.8-11-9.1-12.17-8.36,2.42,4.74,4.83,8.73-7.43-2.13-7.24.28,2.69,6,8.54,12.16-6.22-3.71-7-1.39,4.64,10.22,8.82,13.93-7.52-4.55-7.62-3.44,5.11,6.13,9.38,13.1-7.24-7.34-9.1-3,4.46,16.9,8.82,20.15-10.77-6-11.23-5.11,8.63,8.26,15.88,10.49c7.1,2.19-20.69-4.73-27.48-9l-.38-.25C1085.35,391.68,1087.86,400,1087.86,403.29Z"/><path class="cls-6" d="M518.42,335.86v40.35h15V335.5c0-2.89,35.64,13.93,22.25,5.43s-12.84-13.57-13.38-18.45,17.18,10.85,11.39,4-15-14.66-14.83-19.72,19.54,11.21,12.48,3.43-14.29-13.75-16.64-18.45,16.64,5.61,11.58,0-8.33-12.66-9.64-15.2,20.13,10.68,14.52,5.25-20.62-20.26-21.35-26.23,18.09,9.77,14.26,4.7-16.61-17.73-16.79-21.17,21.71,13.39,13.39,6.7-14.11-22.44-14.11-24.61,13.32,7.42,8.62,2.84-4.28-11.52-4.82-14.69,16.1,9.32,11.85,5.52-8.78-13.75-7.6-15.2,13.57,9.14,8,3.53-11.67-22.61-11-24.51,15,8.32,9.54,3.71-8.14-11-9.32-12.76,11.85,7.24,7.42,2.9-8.23-10.59-8.68-12.12,10.4,6.51,7,2.89-11.12-16.1-11.76-18.82,9.23,6.25,6,1.9-8.32-17.09-8.14-18.45,8.69,7.42,4.34,2.35-4-23.52-5.88-23.52-11.3,21.62-14.74,24.7,6.69-5.07,7.51-2-5,4.79-7.15,8.41,8.14-4.52,8.32-1.45-9.95,19.54-13.29,22.17,10-4.71,10.4-2.54-5.07,13.57-9.41,16.56,10.13-4.8,10-3.26-11,11-12.84,14,7.78-5.88,7.41-1-4.7,16.55-10,20.17,6.24-1.9,6.34-.45-5.07,7.23-8.69,9.86,9.68-2,9.14-.64-8.6,14.57-14,17.37,12.57-3.44,12.48-2.53-5.16,14.47-10,16.55,8.05-2.71,7.78-2-6,8.51-10.31,11,11.21-3.17,10.94-1.63-4.61,8-9,10.76,11.48-6.51,11.76-4.61-6,13.3-10.68,18.54,11.49-5.78,12.76-3.79-8.6,18.45-16.2,22.79,16.74-6.24,16.74-4.16S495,307.91,488.81,310.9s18.75-6.88,19.38-5.34S492.63,320.85,486.85,326s17.45-7.23,18.72-4.61-10.95,15.11-19,18S518.42,332.7,518.42,335.86Z"/><path class="cls-7" d="M429.62,302.61V343h15V302.25c0-2.89,35.64,13.93,22.26,5.43S454,294.11,453.5,289.22s17.19,10.86,11.4,4-15-14.65-14.84-19.72,19.54,11.22,12.49,3.44-14.3-13.75-16.65-18.45,16.65,5.61,11.58,0-8.32-12.67-9.63-15.2S468,254,462.36,248.52,441.74,228.26,441,222.29s18.09,9.76,14.25,4.7-16.61-17.73-16.79-21.17,21.71,13.39,13.39,6.7-14.11-22.44-14.11-24.61,13.33,7.42,8.62,2.84-4.28-11.52-4.82-14.69,16.1,9.32,11.85,5.52-8.78-13.75-7.6-15.2,13.57,9.14,8.05,3.53-11.67-22.61-11-24.51,15,8.32,9.54,3.7-8.14-10.94-9.31-12.75,11.85,7.24,7.41,2.89-8.23-10.58-8.68-12.12,10.4,6.52,7,2.9S437.67,113.92,437,111.2s9.22,6.24,6,1.9S434.68,96,434.86,94.65s8.69,7.42,4.35,2.35-4-23.52-5.88-23.52S422,95.1,418.58,98.18s6.7-5.07,7.51-2-5,4.79-7.15,8.41,8.15-4.52,8.33-1.45-9.95,19.54-13.3,22.16,10-4.7,10.4-2.53-5.06,13.57-9.41,16.56,10.14-4.8,10-3.26-11,11-12.84,14,7.78-5.88,7.42-1-4.71,16.56-10,20.18,6.24-1.9,6.33-.46-5.07,7.24-8.69,9.86,9.68-2,9.14-.63-8.59,14.57-14,17.37,12.57-3.44,12.48-2.53-5.15,14.47-10,16.55,8.05-2.71,7.78-2-6,8.5-10.31,11,11.22-3.17,10.94-1.63-4.61,8-9,10.76,11.49-6.51,11.76-4.61-6,13.3-10.68,18.54,11.49-5.79,12.76-3.8-8.59,18.46-16.19,22.8,16.73-6.24,16.73-4.16S406.23,274.66,400,277.65s18.74-6.88,19.38-5.34-15.56,15.29-21.35,20.44,17.46-7.23,18.72-4.61-10.94,15.11-19,18S429.62,299.45,429.62,302.61Z"/><path class="cls-8" d="M644.28,349.83v40.35h-15V349.47c0-2.89-35.64,13.93-22.25,5.43s12.84-13.57,13.39-18.46-17.19,10.86-11.4,4,15-14.65,14.83-19.72-19.54,11.22-12.48,3.44,14.29-13.75,16.64-18.45-16.64,5.61-11.57,0,8.32-12.67,9.63-15.2-20.13,10.68-14.52,5.25,20.63-20.26,21.35-26.23-18.09,9.76-14.25,4.7,16.6-17.73,16.78-21.17-21.71,13.39-13.39,6.7,14.12-22.44,14.12-24.61-13.33,7.42-8.63,2.84,4.28-11.52,4.83-14.69-16.11,9.32-11.85,5.52,8.77-13.75,7.59-15.2-13.56,9.14-8.05,3.53,11.67-22.61,11-24.51-15,8.32-9.54,3.7,8.14-10.94,9.32-12.75-11.85,7.24-7.42,2.89,8.23-10.58,8.68-12.12-10.4,6.52-7,2.9,11.13-16.1,11.76-18.82-9.23,6.24-6,1.9,8.32-17.09,8.14-18.45-8.68,7.42-4.34,2.35,4-23.52,5.88-23.52,11.31,21.62,14.74,24.7-6.69-5.07-7.51-2,5,4.79,7.15,8.41-8.14-4.52-8.32-1.45,10,19.54,13.3,22.16-10-4.7-10.41-2.53,5.07,13.57,9.41,16.56-10.13-4.8-9.95-3.26,11,11,12.85,14-7.78-5.88-7.42-1,4.7,16.56,10,20.18-6.24-1.9-6.33-.46,5.06,7.24,8.68,9.86-9.68-2-9.14-.63,8.6,14.56,14,17.37-12.58-3.44-12.49-2.53,5.16,14.47,10,16.55-8-2.71-7.78-2,6,8.5,10.32,11-11.22-3.17-10.95-1.63,4.61,8.05,9,10.76-11.49-6.51-11.76-4.61,6,13.3,10.67,18.54-11.49-5.79-12.75-3.8,8.59,18.46,16.19,22.8-16.74-6.24-16.74-4.16,12.17,18.36,18.39,21.35-18.75-6.88-19.38-5.34,15.56,15.29,21.35,20.44-17.46-7.23-18.73-4.61,11,15.11,19,18S644.28,346.67,644.28,349.83Z"/><path class="cls-9" d="M763.79,326.26v26.58h11V327.31c0-1.44,31.55,11,23.43,7.33s-22.74-21.73-22.35-22.91,22.78,7.17,15.81,3.54-15.71-13.65-15.42-14,20.82,6.19,16.6,4.13-16.3-8.84-16.3-11.59,23.36,4.81,16.49,2.16S777,287,777.88,284.43s25.58,7.66,17.82,3.64-18.85-14-19.44-17,21.31,7.56,14.35,3.34-14.15-12.27-14.45-14.92,18.66,7.65,13.06,4S777.44,248.4,778,246.44s18.26,6.48,10.7,2S774.69,236,775,233.28s13.95,7.36,9.53,3.44-9.52-12.18-8.84-14.44,13.75,7,9.72,2.56-11-16.11-11-18.17,10.31,4.71,6.67.49-9.23-14.63-8.83-15.9,13.35,8.34,8.44,2.45-12.57-16.1-11.29-18.85,10.9,5.5,5.6,0-8.64-26.31-9.56-26.31c-1.7,0-10.61,23-13.62,26.24s7.86-1.57,8.12-.72-9.29,13.16-12.7,15.39,9.75-3.41,9.95-2.88-7.85,12.83-11.06,14.33,10.41-3.4,10.34-2.68S747,212.82,743.5,215s11.59-6.34,12.57-5.56S747.64,222.51,743,224.8s15.58-4.45,15.58-3.73-4.65,6.81-8.45,9,6.29-1.64,6.55-1.05-7.14,11.06-12.83,13.09,12.11-2.68,12.17-2.36-9.75,15.91-14.46,18.79,12.7-3.21,12.83-2.1-10.13,13.75-13.64,16.43,14-7.52,14.16-6.41-10.28,12.24-16.36,14.92,15-5.23,15.25-3.79-15.91,13.81-22.91,17.21,19.83-3.6,19.9-2.75-14.58,9.76-21.59,12.18,22.5-5.24,22.57-4.52-10,10.28-18.4,12.7,19-4.52,18.79-3.27-5.69,6.67-10.14,9,7.33-2.56,7.78-2.1-11.19,8.64-18.85,10.74,23.37-6.68,23.7-5.7-10.07,6.19-18.33,10.8C733.49,333.46,763.79,324,763.79,326.26Z"/><path class="cls-10" d="M374.45,276.43V303h11V277.48c0-1.44,31.55,11,23.44,7.33s-22.75-21.73-22.36-22.91,22.78,7.17,15.81,3.53-15.71-13.64-15.41-14,20.81,6.19,16.59,4.13-16.3-8.84-16.3-11.59,23.37,4.81,16.5,2.16-16.11-8.93-15.17-11.49,25.57,7.66,17.82,3.64-18.85-14-19.44-17,21.3,7.56,14.34,3.34-14.15-12.27-14.44-14.92,18.65,7.65,13.06,4-11.79-15.12-11.2-17.08,18.27,6.48,10.71,2-14-12.39-13.76-15.14,13.95,7.36,9.53,3.44-9.52-12.18-8.83-14.44,13.74,7,9.72,2.56-11-16.11-11-18.17,10.31,4.71,6.68.49-9.23-14.63-8.84-15.9,13.35,8.34,8.44,2.45S378.77,127.78,380,125s10.9,5.5,5.6,0S377,98.72,376.08,98.72c-1.7,0-10.6,23-13.61,26.24s7.85-1.57,8.12-.72-9.3,13.16-12.7,15.39,9.75-3.41,9.95-2.88-7.86,12.83-11.07,14.33,10.41-3.4,10.35-2.68-9.5,14.59-13,16.75,11.58-6.35,12.56-5.56-8.43,13.09-13.08,15.38,15.57-4.45,15.57-3.73-4.65,6.81-8.44,9,6.28-1.63,6.54-1-7.13,11.06-12.83,13.09,12.11-2.68,12.18-2.36-9.76,15.91-14.47,18.79,12.7-3.21,12.83-2.1-10.13,13.75-13.64,16.43,14-7.52,14.16-6.41-10.27,12.24-16.36,14.92,15-5.23,15.25-3.79-15.9,13.81-22.91,17.21,19.84-3.6,19.9-2.75-14.57,9.76-21.59,12.18,22.51-5.24,22.57-4.52-9.95,10.28-18.39,12.7,19-4.52,18.79-3.27-5.7,6.67-10.15,9,7.33-2.55,7.79-2.09-11.19,8.64-18.85,10.74,23.37-6.68,23.69-5.7-10.06,6.19-18.33,10.8C344.14,283.63,374.45,274.14,374.45,276.43Z"/><path class="cls-11" d="M798.54,395.82v26.57h-11V396.86c0-1.44-31.55,11-23.43,7.33s22.74-21.73,22.35-22.91-22.78,7.17-15.81,3.54,15.71-13.65,15.42-14-20.82,6.18-16.6,4.12,16.3-8.83,16.3-11.58-23.37,4.81-16.49,2.16,16.1-8.94,15.16-11.49-25.57,7.66-17.81,3.63,18.85-14,19.44-17-21.31,7.56-14.35,3.33,14.15-12.27,14.44-14.92-18.65,7.66-13,4S784.89,318,784.3,316s-18.26,6.48-10.7,2,14-12.39,13.75-15.14-14,7.37-9.53,3.44,9.52-12.17,8.84-14.43-13.75,7-9.72,2.55,11-16.1,11-18.16-10.31,4.71-6.67.49,9.23-14.63,8.83-15.91-13.35,8.35-8.44,2.46,12.57-16.11,11.29-18.86-10.9,5.5-5.6,0S796,218.1,796.9,218.1c1.7,0,10.6,23,13.62,26.25s-7.86-1.57-8.12-.72,9.29,13.16,12.7,15.38-9.76-3.4-10-2.88S813,269,816.21,270.47s-10.41-3.41-10.34-2.69,9.49,14.6,13,16.76-11.59-6.35-12.57-5.56,8.43,13.09,13.09,15.38-15.58-4.45-15.58-3.73,4.65,6.8,8.45,9-6.29-1.64-6.55-1.05,7.14,11.06,12.83,13.09-12.11-2.68-12.17-2.35,9.75,15.9,14.46,18.78-12.7-3.2-12.83-2.09,10.13,13.74,13.64,16.43-14-7.53-14.16-6.42S817.72,348.29,823.8,351s-15-5.24-15.25-3.8S824.46,361,831.46,364.4s-19.83-3.6-19.9-2.75,14.57,9.75,21.59,12.17-22.5-5.23-22.57-4.51S820.53,379.58,829,382s-19-4.51-18.78-3.27,5.69,6.68,10.14,9-7.33-2.55-7.79-2.1,11.2,8.65,18.86,10.74-23.37-6.68-23.7-5.69,10.07,6.18,18.33,10.8C828.84,403,798.54,393.53,798.54,395.82Z"/><path class="cls-12" d="M308.68,306.14H328v-37c0-1.76,39.12,8.28,28.72,3S335.11,253,335.25,252.35s21.41,8.85,15.86,5.41-15.6-14.93-15.2-16.38,19,5.68,13.48,2.9-13.88-12.95-13.22-13.74,20.62,8.32,16.65,5.68-16.65-12.29-16.25-14,14.27,4.76,9.12,1.19-10.05-8.59-10.05-10.84,21.41,10.05,14.05,4-13.43-12-13.87-13.48,17.71,8,13.13,5.11S333.09,191,333.09,189.39s15.42,8,12,5S329.74,178,329.92,177,347.63,184.72,343,181,327.45,163,327.1,161.46s17.88,10.84,13.3,7.23S323.13,144.46,323,143s17.26,8.1,13.12,5.29-11.8-15.86-11.71-17.19,20.44,7.93,16.47,4.67S324.19,120,324.59,118.82,343,131.06,339.34,128s-17.44-23.26-17.44-24.41,12.33,8.82,9.34,4.67-14.8-30.31-14.8-31.1S330,86,327.63,83.49s-15.86-33.57-17.8-33.57c-1.24,0-8.46,15.94-11.28,18.32s5.55-3.17,6.26-2.38S299.43,78.2,295,82.08s6.69-4,7-3.18S295.55,90.45,290.27,95s10.66-6.17,11.1-4.85-10.49,14.1-15.6,17.54,13.66-7.32,14.89-6.08-9.86,14.53-16.91,18.59,12.95-4.76,13-4.41-11,13.66-16.48,16.57,12.6-4.15,13.48-3.44-10.51,13.57-14.51,15.15,8.61-1.85,9.05-1.14-5.29,7.22-8.64,9,11.46-3.53,12.52-2.56-8,10.75-12.43,12.34,13.57-2.21,14-1.5-4.23,5.11-8.54,7.4,6.52-.62,7.75.44-9.25,12-14.89,15.59,13.21-4.67,13-3.26-7.23,9.7-15.07,13,13.31-3.18,13.39-2-6.78,8-11.89,11.54,11.72-4.4,12.07-2.46-7.4,9.33-11.63,13.21,11.45-6.17,12.16-4.4-8.81,13-14.45,16.21,14.63-4.85,14.54-3.53-10,12.25-15,14.72,14.27-4,14.71-3.35-11.69,15.11-19.11,20.66,23.78-6.61,24.18-5.55-21.68,21.28-28.55,23.92,42.16-10,42.16-7.93Z"/><path class="cls-13" d="M239.9,296h19.29V259c0-1.76,39.12,8.28,28.72,3s-21.58-19.12-21.45-19.78,21.41,8.86,15.86,5.42-15.6-14.93-15.2-16.39,19,5.69,13.48,2.91-13.88-12.95-13.21-13.74S288,228.68,284,226s-16.65-12.29-16.26-14,14.28,4.76,9.12,1.19-10-8.59-10-10.84,21.41,10.05,14,4-13.43-12-13.87-13.48,17.71,8,13.13,5.11S264.3,180.8,264.3,179.21s15.42,8,12,5S261,167.84,261.13,166.79s17.71,7.75,13.13,4.05-15.6-18.06-15.95-19.56,17.89,10.84,13.3,7.22-17.26-24.22-17.44-25.72,17.27,8.1,13.13,5.28-11.81-15.86-11.72-17.18,20.44,7.93,16.48,4.67-16.66-15.77-16.26-16.91,18.37,12.24,14.76,9.16-17.45-23.26-17.45-24.41,12.34,8.81,9.34,4.67-14.8-30.31-14.8-31.1,13.57,8.81,11.19,6.34S243,39.73,241,39.73c-1.23,0-8.46,16-11.28,18.33s5.55-3.17,6.26-2.38S230.64,68,226.24,71.89s6.7-4,7-3.17-6.43,11.54-11.72,16.13,10.66-6.17,11.1-4.85S222.1,94.1,217,97.53s13.65-7.31,14.89-6.08S222,106,215,110.05s12.95-4.76,13-4.41-11,13.66-16.48,16.56,12.6-4.14,13.49-3.43-10.52,13.57-14.51,15.15,8.6-1.85,9-1.14-5.28,7.22-8.63,9,11.45-3.52,12.51-2.55S215.4,150,211,151.54s13.56-2.2,14-1.49-4.23,5.11-8.55,7.4,6.52-.62,7.75.44-9.25,12-14.89,15.59,13.22-4.67,13-3.26-7.22,9.7-15.06,13,13.3-3.18,13.39-2-6.79,8-11.9,11.54,11.72-4.4,12.07-2.47-7.4,9.34-11.63,13.22,11.46-6.17,12.16-4.41-8.81,13-14.45,16.22,14.63-4.85,14.54-3.53-10,12.25-15,14.72,14.28-4,14.72-3.35-11.7,15.11-19.11,20.66,23.78-6.61,24.17-5.55-21.67,21.28-28.54,23.92,42.16-10,42.16-7.93Z"/><path class="cls-14" d="M100.73,278.77H120v-37c0-1.76,39.12,8.29,28.72,3S127.17,225.64,127.3,225s21.41,8.85,15.86,5.42S127.56,215.46,128,214s19,5.68,13.48,2.91-13.88-13-13.22-13.75,20.62,8.33,16.66,5.68-16.66-12.29-16.26-14,14.27,4.75,9.12,1.18-10-8.59-10-10.83,21.41,10,14,4-13.43-12-13.87-13.48,17.71,8,13.13,5.11S125.14,163.61,125.14,162s15.42,8,12,5S121.79,150.66,122,149.6s17.71,7.76,13.13,4.05-15.6-18.06-15.95-19.56,17.89,10.84,13.3,7.23S115.18,117.09,115,115.59s17.27,8.11,13.13,5.29S116.33,105,116.42,103.7s20.44,7.93,16.47,4.67S116.24,92.6,116.64,91.45,135,103.7,131.4,100.61,114,77.35,114,76.21s12.34,8.81,9.34,4.67-14.8-30.31-14.8-31.11,13.57,8.82,11.19,6.35-15.86-33.57-17.8-33.57c-1.23,0-8.46,16-11.28,18.33s5.55-3.18,6.26-2.38-5.38,12.33-9.78,16.21,6.69-4,7-3.17S87.61,63.08,82.32,67.66,93,61.49,93.42,62.82,82.94,76.91,77.83,80.35,91.48,73,92.72,74.27,82.85,88.81,75.8,92.86s13-4.76,13-4.41-11,13.66-16.48,16.57,12.6-4.14,13.48-3.44-10.51,13.57-14.5,15.16,8.6-1.85,9-1.15-5.28,7.23-8.63,9S83.2,121.05,84.26,122s-8,10.75-12.42,12.34,13.56-2.2,14-1.5-4.22,5.11-8.54,7.4,6.52-.61,7.75.44-9.25,12-14.89,15.6,13.22-4.67,13-3.26S76,162.73,68.13,166s13.31-3.17,13.4-2-6.79,8-11.9,11.55S81.35,171.1,81.7,173s-7.4,9.34-11.63,13.21,11.46-6.16,12.16-4.4-8.81,13-14.45,16.21,14.63-4.84,14.54-3.52-10,12.24-15,14.71,14.28-4,14.72-3.35S70.36,221,63,226.56,86.73,220,87.12,221s-21.67,21.28-28.54,23.92,42.15-10,42.15-7.92Z"/><path class="cls-15" d="M738.72,411.7h-19.3v-37c0-1.76-39.12,8.28-28.72,3s21.59-19.11,21.45-19.78-21.41,8.86-15.86,5.42,15.6-14.93,15.2-16.39-19,5.69-13.48,2.91,13.88-13,13.22-13.74-20.62,8.32-16.65,5.68,16.65-12.29,16.25-14-14.27,4.76-9.12,1.19,10-8.59,10-10.84-21.41,10.05-14,4,13.43-12,13.87-13.48-17.71,8-13.13,5.11,15.86-17.18,15.86-18.77-15.42,8-12,5,15.33-16.39,15.15-17.44-17.71,7.75-13.12,4S720,268.53,720.3,267s-17.88,10.84-13.3,7.23,17.27-24.23,17.44-25.73-17.26,8.1-13.12,5.28S723.12,238,723,236.63s-20.45,7.93-16.48,4.67,16.65-15.77,16.25-16.91-18.37,12.24-14.75,9.16,17.44-23.26,17.44-24.41-12.33,8.81-9.34,4.67S731,183.5,731,182.71s-13.56,8.81-11.18,6.34,15.85-33.56,17.79-33.56c1.24,0,8.46,15.94,11.28,18.32s-5.55-3.17-6.25-2.38,5.37,12.34,9.78,16.21-6.7-4-7-3.17,6.44,11.55,11.72,16.13-10.66-6.17-11.1-4.85,10.49,14.1,15.6,17.53S748,206,746.74,207.2s9.86,14.54,16.91,18.6-12.95-4.76-13-4.41,11,13.66,16.48,16.56-12.6-4.14-13.48-3.43,10.51,13.57,14.51,15.15-8.61-1.85-9-1.14,5.29,7.22,8.64,9S756.25,254,755.19,255s8,10.75,12.43,12.33-13.57-2.2-14-1.49,4.23,5.11,8.55,7.4-6.52-.62-7.76.44,9.25,12,14.89,15.59-13.21-4.67-13-3.26,7.23,9.7,15.07,13-13.31-3.18-13.39-2,6.78,8,11.89,11.54S758.1,304,757.75,306s7.4,9.34,11.63,13.22-11.45-6.17-12.16-4.4,8.81,13,14.45,16.21-14.63-4.85-14.54-3.53,10,12.25,15,14.72-14.27-4-14.71-3.35S769.09,354,776.51,359.5s-23.78-6.61-24.18-5.55,21.68,21.28,28.55,23.92-42.16-10-42.16-7.93Z"/><path class="cls-16" d="M845.42,431.12h-19.3v-37c0-1.76-39.12,8.28-28.72,3S819,378,818.85,377.33s-21.41,8.85-15.86,5.42,15.6-14.94,15.2-16.39-19,5.68-13.48,2.9,13.88-12.95,13.22-13.74-20.62,8.33-16.66,5.68,16.66-12.29,16.26-14-14.27,4.76-9.12,1.19,10.05-8.59,10.05-10.83-21.41,10-14.05,4,13.43-12,13.87-13.48-17.71,8-13.13,5.11S821,316,821,314.37s-15.42,8-12,5S824.36,303,824.18,302s-17.71,7.75-13.13,4.05,15.6-18.06,16-19.56-17.88,10.84-13.3,7.23,17.27-24.23,17.44-25.73-17.27,8.11-13.12,5.29,11.8-15.86,11.71-17.18-20.44,7.93-16.47,4.67,16.65-15.78,16.25-16.92-18.37,12.25-14.75,9.16,17.44-23.26,17.44-24.4-12.33,8.81-9.34,4.67,14.8-30.31,14.8-31.11-13.57,8.81-11.19,6.35,15.86-33.57,17.8-33.57c1.24,0,8.46,15.95,11.28,18.32s-5.55-3.17-6.26-2.37,5.38,12.33,9.78,16.21-6.69-4-7-3.17,6.44,11.54,11.72,16.12-10.66-6.17-11.1-4.85,10.48,14.1,15.6,17.54-13.66-7.32-14.9-6.08,9.87,14.54,16.92,18.59-13-4.76-13-4.41,11,13.66,16.48,16.57-12.6-4.14-13.48-3.44,10.51,13.57,14.51,15.16-8.61-1.85-9.05-1.15,5.29,7.22,8.63,9-11.45-3.53-12.51-2.56,8,10.75,12.43,12.34-13.57-2.21-14-1.5,4.23,5.11,8.54,7.4-6.52-.62-7.75.44,9.25,12,14.89,15.6-13.22-4.67-13-3.26,7.23,9.69,15.07,12.95-13.31-3.17-13.4-2,6.79,8,11.9,11.54-11.72-4.4-12.07-2.46,7.4,9.34,11.63,13.21-11.46-6.16-12.16-4.4,8.81,13,14.45,16.21-14.63-4.85-14.54-3.52,10,12.24,15,14.71-14.27-4-14.71-3.35,11.69,15.11,19.1,20.66-23.77-6.61-24.17-5.55,21.67,21.28,28.55,23.92-42.16-10-42.16-7.93Z"/><path class="cls-17" d="M180.44,244.85v17.29H194.3s.1-14.06,0-15.52,31.76,9.58,22.39,4.58-17.92-15.62-18.23-17.08,21.66,11.56,15.52,7.08-14.48-17.7-15-19.26,26.66,14.78,18.85,9.06-19.45-22.79-19.45-24.19,22.66,12.26,14.77,6.79-12.92-14.32-12.76-14.94,12.86,5.26,9.22,2.76-10-9.58-10.21-11.46,25.41,11.35,18.43,6.67-16.17-14-16.17-15,16.09,6.09,11.17,3.28S202,171.81,202.6,170.72s22.89,9.84,15.7,5.7-18-14.14-18-15.7,18.43,9.3,13.51,5.63-13-15.39-12.5-16.48,11.8,4.79,8.36,2.6-9.58-8-9.17-9.69,22.29,11.15,15,5.42S199,131.74,199,130.29s18.54,10.31,12.19,5.93-12.4-17.7-11.35-20.1,20.41,10.94,14.68,5.73-17.6-17.5-17.24-18.33,14.22,6,10.37,3.44-14.48-16.15-14.48-18.23,15.73,9.17,12,4.69S191.48,75,191.59,73s15.93,11.88,13.22,8.23-13.95-24.58-13.22-26.14S201,61.65,199,57.38s-10.52-30-12.08-30c-.83,0-13,24.73-15.73,27.81s7.19-4.85,7.45-4S169.93,63,166.85,65.19s11-5.26,11.51-4.68-9.37,12-11.72,14.21,10.05-7.5,10.84-6.35-8.77,11.51-11.13,13.7,9.15-5.73,9.56-5.11-5.52,11.61-8.59,14.63,7.14-4.27,7.5-3.48-6.51,11.35-9.37,13.74,8.48-4.84,9-4.27-5.21,10.94-7.92,13.39,9.84-8,10.41-7.5-4,9.06-5.51,10.57,4.21-2.87,4.53-2.4-4.22,7-7.66,9.74,9-5.1,9.37-4.27-3.12,4.84-4.73,6.25,4.89-2.24,5.31-1.72-6.72,7-10.16,9.32,7.87-3.28,8.07-2.91-5.26,9.68-9.79,12.81,7.35-4.17,7.71-3.75-5.94,11.19-10.83,15,9.69-5.63,10.62-4.9-5.62,10-12.29,14.48,13.75-5.21,14.38-3.86-11.67,12.19-16.25,15.84S176.17,166,176.17,167s-8.33,13.22-14.58,17.28,15-7.18,16.56-4.84-15.62,18.9-21.4,22.34,16.4-5.15,17-4.37-17.5,16.71-21.87,19.68,19.37-8.44,20.62-6.4-9.84,10.46-15.94,14.06,18.75-3.91,19.06-3.13-16.4,13.12-21.71,15.47,23-8.13,24.21-6.25-20,17.49-26.78,20.62S180.44,244.85,180.44,244.85Z"/><path class="cls-18" d="M940.92,403.09v17.29H927.07s-.1-14.06,0-15.52-31.76,9.58-22.39,4.59,17.91-15.63,18.23-17.08-21.67,11.56-15.52,7.08,14.47-17.71,15-19.27-26.67,14.79-18.86,9.06S923,366.46,923,365.05s-22.65,12.27-14.76,6.8,12.92-14.32,12.76-15-12.86,5.26-9.22,2.76,10-9.58,10.21-11.45-25.41,11.35-18.44,6.66,16.17-13.95,16.17-15-16.09,6.09-11.17,3.28,10.86-13.12,10.24-14.21-22.89,9.84-15.7,5.7,18-14.14,18-15.7-18.43,9.29-13.51,5.62,13-15.39,12.5-16.48-11.8,4.79-8.36,2.6,9.58-8,9.16-9.68-22.28,11.14-15,5.41,16.58-16.45,16.58-17.91-18.54,10.31-12.19,5.94,12.39-17.71,11.35-20.1-20.41,10.93-14.68,5.72,17.6-17.49,17.23-18.33-14.21,6.05-10.36,3.44,14.48-16.14,14.48-18.22-15.73,9.16-12,4.68,13.64-18.43,13.54-20.41-15.94,11.87-13.23,8.23,14-24.58,13.23-26.14-9.37,6.56-7.39,2.29,10.51-30,12.08-30c.83,0,13,24.74,15.72,27.81s-7.18-4.84-7.44-4,8.69,11.72,11.76,14-11-5.26-11.5-4.69,9.37,12,11.71,14.22-10.05-7.5-10.83-6.36,8.77,11.51,11.13,13.7-9.15-5.73-9.57-5.1,5.52,11.61,8.6,14.63-7.14-4.27-7.5-3.49,6.51,11.35,9.37,13.75-8.49-4.84-9-4.27,5.21,10.93,7.92,13.38-9.85-8-10.42-7.5,4,9.06,5.52,10.57-4.22-2.86-4.53-2.39,4.22,7,7.66,9.74-9-5.11-9.38-4.27,3.13,4.84,4.74,6.24-4.89-2.23-5.31-1.71,6.72,7,10.15,9.32-7.86-3.28-8.07-2.92S950.45,296,955,299.1s-7.34-4.16-7.7-3.75,5.93,11.2,10.83,15-9.69-5.62-10.63-4.89,5.63,10,12.29,14.47-13.74-5.2-14.37-3.85,11.67,12.18,16.25,15.83-16.46-7.71-16.46-6.77,8.33,13.23,14.58,17.29-15-7.19-16.56-4.84,15.63,18.9,21.41,22.34-16.41-5.16-17-4.38,17.5,16.72,21.87,19.69-19.37-8.44-20.62-6.41,9.84,10.47,15.93,14.06S946,379,945.71,379.82s16.41,13.12,21.72,15.46-23-8.12-24.22-6.25,20,17.5,26.79,20.62S940.92,403.09,940.92,403.09Z"/><path class="cls-19" d="M987.55,389v17.29H973.7s-.1-14.06,0-15.52-31.76,9.58-22.39,4.58,17.91-15.62,18.22-17.08-21.66,11.56-15.51,7.08,14.47-17.7,15-19.26-26.66,14.78-18.85,9.06,19.45-22.79,19.45-24.19-22.65,12.26-14.76,6.79,12.91-14.32,12.76-14.94-12.86,5.26-9.22,2.76,10-9.58,10.21-11.46-25.41,11.35-18.44,6.67,16.17-14,16.17-15-16.09,6.09-11.17,3.28S966,316,965.39,314.89s-22.88,9.84-15.7,5.7,18-14.13,18-15.7-18.43,9.3-13.51,5.63,13-15.39,12.49-16.48-11.79,4.79-8.35,2.6,9.58-8,9.16-9.69-22.29,11.15-15,5.42S969,275.91,969,274.46s-18.53,10.31-12.18,5.93,12.39-17.7,11.35-20.1S947.77,271.23,953.5,266s17.6-17.5,17.23-18.33-14.21,6-10.36,3.44S974.85,235,974.85,232.9s-15.73,9.17-12,4.69,13.64-18.44,13.54-20.41-15.94,11.87-13.23,8.22,14-24.58,13.23-26.14-9.37,6.56-7.4,2.29,10.52-30,12.09-30c.83,0,13,24.73,15.72,27.81s-7.18-4.85-7.45-4,8.7,11.71,11.77,14-11-5.26-11.5-4.68,9.37,12,11.71,14.21-10.05-7.49-10.83-6.35,8.76,11.51,11.13,13.7-9.15-5.73-9.57-5.11,5.52,11.62,8.59,14.64-7.13-4.27-7.49-3.49,6.51,11.35,9.37,13.74-8.49-4.84-9-4.27,5.21,10.94,7.92,13.39-9.85-8-10.42-7.5,4,9.06,5.52,10.57-4.22-2.86-4.53-2.4,4.22,7,7.66,9.74-9-5.1-9.38-4.27,3.13,4.84,4.74,6.25-4.89-2.24-5.31-1.72,6.72,7,10.15,9.32-7.86-3.28-8.07-2.91,5.26,9.68,9.79,12.81-7.34-4.17-7.7-3.75,5.93,11.19,10.83,15.05-9.69-5.63-10.63-4.9,5.63,10,12.29,14.48-13.74-5.21-14.37-3.85,11.66,12.18,16.25,15.83-16.46-7.71-16.46-6.77,8.33,13.22,14.58,17.28-15-7.18-16.56-4.84,15.63,18.9,21.41,22.34-16.41-5.15-17-4.37,17.49,16.71,21.87,19.68-19.37-8.44-20.62-6.4,9.84,10.46,15.93,14.06-18.74-3.91-19.06-3.13,16.41,13.12,21.72,15.47-23-8.13-24.22-6.25,20,17.49,26.79,20.62S987.55,389,987.55,389Z"/><path class="cls-20" d="M1887,631H3000V165.64s-19,8-31,10.66-22.67,13.34-35.49,20.82-21.18,7.18-35.18,4.52-25.33-2-44,4.66-18.23,17.14-25.95,20.61-17.38,2.73-40.05,2.06-32.66-17.33-54.42-4.67-45.92,20.92-65.58,23.36-18.66,0-32,4.64-39.33,17.34-61.33,22-29.33,17.34-42.67,24.67-24.66,14-52.66,10.67-42.67-2-54.67,0-30.65,7.12-39,6.66c-32.41-1.76-56.41-2.5-95.41.12s-27.76-.45-58.13,4.08-31.86,23.38-66.36,23.71S2112,358,2085,358s-38,12.34-60,12.17-26.73,7.34-55.83,2.75-57.15,3.17-81.16,8.62-16,9.21-50,8.33-52.62,10.59-62.31,11.36S1742,419.45,1742,419.45V631h145"/><path class="cls-21" d="M2454.81,348v33h-13.23s-1.25-38,0-43.18-22.7,12.68-19.5,8.78,9.47-9.2,11-12.26-19.4,12.44-17.36,9.1S2428.63,331,2431,327.06s-15,5.43-12.67,3.34,8.36-10.31,11-12.54-18,3.21-11.14,0,11.7-11.7,13.79-15.93-23.54,8.83-19.5,6.74a76.78,76.78,0,0,0,12.81-9.19c1.81-1.81-10.3,2.51-8.35,1.39s9.61-9.75,11.28-13.37-13.37,5.57-8.78,0,1.68-10,5.44-14.62-8.36-.7-5.44-3.63,5.71-6.82,9.06-9.33-7.38-.56-3.76-4.46-16.44,4.46-9.62,0,8.5-10.86,12-14.9-11.14,2.09-8.63,0,3.06-3.2,5.43-7.1-10.86,2.64-8.5,0,5.72-6.27,7.8-9.06-7.8,4-5.29,1.26,7.94-11.42,9.75-13.23-6.54,1.81-4.43,0,5-9.75,7.91-12.82-11.7,4.74-7,1.12,7.1-11,9.75-14.07-2.51-.56.14-2.79,6.13-15.32,4.46-13.79-12,3.35-11.43,1.4,2.65-2.93,3.35-4.32-1-2.23-.84-2.79,2.37-2.09,4.32-4.17-1.53-1.95,0-3.77,5.43-9.47,7.1-11.83-1.67-2.51,1-6.69,6.48-23.54,7.94-23.54c2.09,0,12,24,11.93,26s-3.81-.1-3.53,2,5.85,13.28,9.47,17.83-5.2-3-5-.19,4.18,9.75,5.85,12.44-4-1.67-3.44.19,6.13,7.24,9,9.38-9.47-4.83-8.92-3.53,2.14,12.35,3.81,14.39-2.78-1.95-2.69-.93,4,7.15,5.57,9.94-8.17-7.25-8-5.3,4.09,9.75,6,12.26-7.24-4.27-6.78-1.39,6.32,12.72,9.47,17-5.29-4.46-5.48-3.34,7.71,15.6,12,21.63-8.35-6.77-8.45-4.82,7.52,9.93,10.12,11.88-5.94-3.44-5.57-1.67,6.69,8.63,11.15,11.42-10.5-7.52-10.68-5.2,6.13,9.38,9.19,11.89-11.79-6.88-13.37-5.85,7.33,11.79,10.77,14.76-10-5.48-10.12-3.62,6.87,16,12,20.8-11-9.1-12.17-8.36,2.42,4.74,4.83,8.73-7.43-2.14-7.24.28,2.69,6,8.54,12.16-6.22-3.71-7-1.39,4.64,10.21,8.82,13.93-7.52-4.55-7.62-3.44,5.11,6.13,9.38,13.09-7.24-7.33-9.1-3,4.46,16.9,8.82,20.15-10.77-6-11.23-5.1,8.63,8.26,15.88,10.49-20.69-4.73-27.48-9l-.38-.26C2452.3,336.34,2454.81,344.7,2454.81,348Z"/><path class="cls-22" d="M2112.81,420.79v33h-13.23s-1.25-38,0-43.18-22.7,12.68-19.5,8.78,9.47-9.2,11-12.26-19.4,12.44-17.36,9.1,12.91-12.44,15.27-16.34-15,5.43-12.67,3.34,8.36-10.31,11-12.54-18,3.21-11.14,0,11.7-11.7,13.79-15.93-23.54,8.83-19.5,6.74a76.78,76.78,0,0,0,12.81-9.19c1.81-1.81-10.3,2.51-8.35,1.39s9.61-9.75,11.28-13.37-13.37,5.57-8.78,0,1.68-10,5.44-14.63-8.36-.69-5.44-3.62,5.71-6.82,9.06-9.33-7.38-.56-3.76-4.46-16.44,4.46-9.62,0,8.5-10.86,12-14.9-11.14,2.09-8.63,0,3.06-3.2,5.43-7.1-10.86,2.64-8.5,0,5.72-6.27,7.8-9.06-7.8,4-5.29,1.26,7.94-11.42,9.75-13.23-6.54,1.81-4.43,0,5-9.75,7.91-12.82-11.7,4.74-7,1.12,7.1-11,9.75-14.07-2.51-.56.14-2.79,6.13-15.32,4.46-13.79-12,3.35-11.43,1.4,2.65-2.93,3.35-4.32-1-2.23-.84-2.79,2.37-2.09,4.32-4.18-1.53-1.95,0-3.76,5.43-9.47,7.1-11.83-1.67-2.51,1-6.69,6.48-23.54,7.94-23.54c2.09,0,12,24,11.93,26s-3.81-.1-3.53,2,5.85,13.27,9.47,17.82-5.2-3-5-.18,4.18,9.75,5.85,12.44-4-1.67-3.44.19,6.13,7.24,9,9.38-9.47-4.83-8.92-3.53,2.14,12.35,3.81,14.39-2.78-2-2.69-.93,4,7.15,5.57,9.94-8.17-7.25-8-5.3,4.09,9.75,6,12.26-7.24-4.27-6.78-1.39,6.32,12.72,9.47,17-5.29-4.46-5.48-3.34,7.71,15.6,12,21.63-8.35-6.78-8.45-4.83,7.52,9.94,10.12,11.89-5.94-3.44-5.57-1.67,6.69,8.63,11.15,11.42-10.5-7.52-10.68-5.2,6.13,9.38,9.19,11.89-11.79-6.88-13.37-5.85S2137,345,2140.39,348s-10-5.48-10.12-3.62,6.87,16,12,20.8-11-9.1-12.17-8.36,2.42,4.74,4.83,8.73-7.43-2.14-7.24.28,2.69,6,8.54,12.16-6.22-3.71-7-1.39,4.64,10.21,8.82,13.93-7.52-4.55-7.62-3.44,5.11,6.13,9.38,13.09-7.24-7.33-9.1-3,4.46,16.9,8.82,20.15-10.77-6-11.23-5.1,8.63,8.26,15.88,10.49-20.69-4.73-27.48-9l-.38-.26C2110.3,409.18,2112.81,417.54,2112.81,420.79Z"/><path class="cls-23" d="M2531.56,382.68v33h13.24s1.25-38,0-43.18,22.7,12.67,19.5,8.77-9.48-9.19-11-12.25,19.41,12.44,17.37,9.1-12.91-12.45-15.27-16.35,15,5.44,12.67,3.35-8.36-10.31-11-12.54,18,3.21,11.15,0-11.7-11.7-13.79-15.93,23.54,8.83,19.5,6.74a76.91,76.91,0,0,1-12.82-9.19c-1.81-1.81,10.31,2.5,8.36,1.39s-9.61-9.75-11.28-13.37,13.37,5.57,8.77,0-1.67-10-5.43-14.63,8.36-.69,5.43-3.62-5.71-6.82-9.05-9.33,7.38-.56,3.76-4.46,16.43,4.46,9.62,0-8.51-10.86-12-14.9,11.14,2.09,8.64,0-3.07-3.2-5.44-7.1,10.87,2.64,8.5,0-5.71-6.27-7.8-9.06,7.8,4,5.29,1.26-7.94-11.42-9.75-13.23,6.55,1.81,4.44,0-5-9.75-7.92-12.82,11.7,4.74,7,1.12-7.11-11-9.75-14.07,2.5-.56-.14-2.79-6.13-15.32-4.46-13.79,12,3.35,11.42,1.4-2.65-2.93-3.34-4.32,1-2.23.83-2.79-2.36-2.09-4.31-4.18,1.53-1.95,0-3.76-5.44-9.47-7.11-11.84,1.67-2.5-1-6.68-6.49-23.54-7.94-23.54c-2.09,0-12,24-11.93,26.05s3.8-.1,3.53,1.95-5.85,13.27-9.48,17.82,5.2-3,5-.18-4.18,9.75-5.85,12.44,4-1.67,3.43.19-6.12,7.24-9,9.37,9.47-4.82,8.91-3.52-2.13,12.35-3.81,14.39,2.79-2,2.7-.93-4,7.15-5.57,9.94,8.17-7.25,8-5.3-4.08,9.75-6,12.26,7.24-4.27,6.77-1.39-6.31,12.72-9.47,17,5.3-4.46,5.48-3.34-7.71,15.6-12,21.63,8.36-6.78,8.45-4.83-7.52,9.94-10.12,11.89,5.94-3.44,5.57-1.67-6.68,8.63-11.14,11.42,10.49-7.52,10.68-5.2-6.13,9.38-9.19,11.88,11.79-6.87,13.37-5.85-7.34,11.8-10.77,14.77,10-5.48,10.12-3.62-6.87,16-12,20.8,11-9.1,12.16-8.36-2.41,4.74-4.83,8.73,7.43-2.14,7.25.28-2.7,6-8.55,12.16,6.23-3.71,7-1.39-4.64,10.21-8.82,13.93,7.52-4.55,7.61-3.44-5.11,6.13-9.38,13.09,7.25-7.33,9.1-3-4.45,16.9-8.82,20.15,10.77-6,11.24-5.11-8.64,8.27-15.88,10.5,20.68-4.73,27.47-9c.14-.09.27-.17.39-.26C2534.07,371.07,2531.56,379.43,2531.56,382.68Z"/><path class="cls-24" d="M2069.28,440.14v33h13.23s1.25-38,0-43.18,22.7,12.67,19.5,8.77-9.47-9.19-11-12.25,19.4,12.44,17.36,9.1-12.91-12.45-15.27-16.35,15,5.44,12.67,3.35-8.36-10.31-11-12.54,18,3.21,11.14,0-11.7-11.7-13.79-15.93,23.54,8.83,19.5,6.74a76.78,76.78,0,0,1-12.81-9.19c-1.82-1.81,10.3,2.5,8.35,1.39s-9.61-9.75-11.28-13.37,13.37,5.57,8.78,0-1.68-10-5.44-14.63,8.36-.69,5.44-3.62-5.72-6.82-9.06-9.33,7.38-.56,3.76-4.46,16.44,4.46,9.62,0-8.5-10.86-12-14.9,11.15,2.09,8.64,0-3.06-3.2-5.43-7.1,10.86,2.64,8.49,0-5.71-6.27-7.8-9.06,7.8,4,5.3,1.26-7.94-11.42-9.75-13.24,6.54,1.82,4.43,0-5-9.74-7.91-12.81,11.7,4.74,7,1.12-7.1-11-9.75-14.07,2.51-.56-.14-2.79-6.13-15.32-4.46-13.79,12,3.35,11.42,1.4-2.64-2.93-3.34-4.32,1-2.23.84-2.79-2.37-2.09-4.32-4.18,1.53-1.95,0-3.76-5.43-9.47-7.1-11.84,1.67-2.5-1-6.68-6.48-23.54-7.94-23.54c-2.09,0-12,24-11.93,26.05s3.81-.1,3.53,1.95-5.85,13.27-9.47,17.82,5.2-3,5-.18-4.18,9.75-5.85,12.44,4-1.67,3.44.19-6.13,7.24-9,9.37,9.47-4.82,8.91-3.52-2.13,12.35-3.8,14.39,2.78-1.95,2.69-.93-4,7.15-5.57,9.94,8.17-7.25,8-5.3-4.08,9.75-6,12.26,7.24-4.27,6.78-1.39-6.32,12.72-9.47,17,5.29-4.46,5.47-3.34-7.7,15.6-12,21.63,8.35-6.78,8.45-4.83-7.53,9.94-10.12,11.89,5.94-3.44,5.57-1.67-6.69,8.63-11.15,11.42,10.5-7.52,10.68-5.2-6.13,9.38-9.19,11.88,11.79-6.87,13.37-5.85-7.33,11.8-10.77,14.77,10-5.48,10.12-3.62-6.87,16-12,20.8,11-9.1,12.17-8.36-2.42,4.74-4.83,8.73,7.43-2.14,7.24.28-2.69,6-8.54,12.16,6.22-3.71,7-1.39-4.64,10.21-8.82,13.93,7.52-4.55,7.61-3.44-5.1,6.13-9.37,13.09,7.24-7.33,9.1-3-4.46,16.9-8.82,20.15,10.77-6,11.23-5.11-8.63,8.27-15.88,10.5,20.69-4.73,27.47-9c.14-.09.27-.17.39-.26C2071.78,428.53,2069.28,436.89,2069.28,440.14Z"/><path class="cls-25" d="M2587.07,332.61V373h-15V332.25c0-2.9-35.64,13.93-22.25,5.43s12.84-13.57,13.39-18.46-17.19,10.86-11.4,4,15-14.65,14.83-19.72-19.53,11.22-12.48,3.44,14.29-13.75,16.65-18.45-16.65,5.61-11.58,0,8.32-12.67,9.63-15.2-20.13,10.67-14.52,5.25,20.63-20.27,21.35-26.24-18.09,9.77-14.25,4.71,16.6-17.73,16.78-21.17-21.71,13.39-13.38,6.69,14.11-22.43,14.11-24.6-13.33,7.42-8.63,2.83,4.28-11.51,4.83-14.68-16.1,9.32-11.85,5.52,8.77-13.75,7.6-15.2-13.57,9.14-8.05,3.53,11.66-22.62,11-24.52-15,8.33-9.55,3.71,8.14-10.94,9.32-12.75-11.85,7.24-7.42,2.89,8.23-10.58,8.69-12.12-10.41,6.51-7,2.9,11.13-16.11,11.76-18.82-9.23,6.24-6,1.9,8.32-17.1,8.14-18.45-8.68,7.41-4.34,2.35,4-23.52,5.88-23.52,11.31,21.62,14.74,24.7-6.69-5.07-7.5-2,5,4.79,7.14,8.41-8.14-4.53-8.32-1.45,9.95,19.54,13.3,22.16-10-4.7-10.41-2.53,5.07,13.57,9.41,16.55-10.13-4.79-9.95-3.25,11,11,12.85,14-7.78-5.88-7.42-1,4.7,16.56,10,20.18-6.24-1.9-6.33-.46,5.06,7.24,8.68,9.86-9.68-2-9.13-.63,8.59,14.56,14,17.37S2601.9,222,2602,222.88s5.16,14.48,10,16.56-8.05-2.71-7.78-2,6,8.5,10.32,10.94-11.22-3.16-11-1.62,4.62,8,9.05,10.76-11.49-6.51-11.76-4.61,6,13.29,10.67,18.54-11.49-5.79-12.75-3.8,8.59,18.46,16.19,22.8-16.74-6.24-16.74-4.16,12.17,18.36,18.39,21.34-18.75-6.87-19.38-5.33,15.56,15.28,21.35,20.44-17.46-7.24-18.73-4.61,11,15.1,19,18S2587.07,329.44,2587.07,332.61Z"/><path class="cls-26" d="M2701.86,327.7V368h-15v-40.7c0-2.9-35.64,13.93-22.25,5.42s12.84-13.57,13.38-18.45-17.18,10.85-11.39,4,15-14.65,14.83-19.72-19.54,11.22-12.48,3.44,14.29-13.75,16.64-18.46-16.64,5.61-11.58,0,8.33-12.66,9.64-15.19-20.13,10.67-14.52,5.24,20.62-20.26,21.35-26.23-18.09,9.77-14.26,4.7,16.61-17.73,16.79-21.16-21.71,13.39-13.39,6.69,14.11-22.43,14.11-24.6-13.32,7.41-8.62,2.83,4.28-11.52,4.82-14.68-16.1,9.31-11.85,5.51,8.78-13.75,7.6-15.19-13.57,9.13-8.05,3.53,11.67-22.62,11-24.52-15,8.32-9.54,3.71,8.14-10.95,9.32-12.75-11.85,7.23-7.42,2.89,8.23-10.58,8.68-12.12-10.4,6.51-7,2.89,11.12-16.1,11.76-18.81-9.23,6.24-6,1.9,8.32-17.1,8.14-18.46-8.69,7.42-4.34,2.36,4-23.52,5.88-23.52,11.3,21.62,14.74,24.69-6.69-5.06-7.51-2,5,4.8,7.15,8.41-8.14-4.52-8.32-1.44,10,19.54,13.29,22.16-10-4.7-10.4-2.53,5.07,13.57,9.41,16.55-10.13-4.79-9.95-3.26,11,11,12.84,14-7.78-5.87-7.41-1,4.7,16.55,10,20.17-6.24-1.9-6.34-.45,5.07,7.24,8.69,9.86-9.68-2-9.14-.63,8.6,14.56,14,17.36-12.57-3.43-12.48-2.53,5.16,14.47,10,16.56-8-2.72-7.78-2,6,8.5,10.31,10.94-11.21-3.17-10.94-1.63,4.61,8.05,9,10.77S2716,246.1,2715.7,248s6,13.3,10.68,18.55-11.49-5.79-12.76-3.8,8.6,18.45,16.2,22.79-16.74-6.24-16.74-4.16,12.17,18.37,18.39,21.35-18.75-6.87-19.38-5.34,15.56,15.29,21.34,20.45-17.45-7.24-18.72-4.62,10.95,15.11,19,18S2701.86,324.53,2701.86,327.7Z"/><path class="cls-27" d="M2496.41,342.06V382.4h15V341.7c0-2.9,35.64,13.93,22.26,5.42s-12.85-13.56-13.39-18.45,17.18,10.86,11.39,4-15-14.65-14.83-19.72,19.54,11.22,12.48,3.44-14.29-13.75-16.64-18.46,16.64,5.61,11.58,0-8.32-12.66-9.64-15.19,20.13,10.67,14.52,5.24-20.62-20.26-21.35-26.23,18.1,9.77,14.26,4.7-16.61-17.72-16.79-21.16,21.71,13.39,13.39,6.69-14.11-22.43-14.11-24.6,13.33,7.41,8.62,2.83-4.28-11.52-4.82-14.68,16.1,9.31,11.85,5.51-8.78-13.74-7.6-15.19,13.57,9.13,8.05,3.53-11.67-22.62-11-24.52,15,8.32,9.54,3.71-8.14-10.94-9.32-12.75,11.85,7.23,7.42,2.89-8.23-10.58-8.68-12.12,10.4,6.51,7,2.89-11.12-16.1-11.76-18.81,9.23,6.24,6,1.9-8.32-17.1-8.14-18.46,8.69,7.42,4.34,2.36-4-23.52-5.87-23.52-11.31,21.62-14.75,24.69,6.69-5.06,7.51-2-5,4.8-7.15,8.42,8.14-4.53,8.32-1.45-10,19.54-13.29,22.16,10-4.7,10.4-2.53-5.07,13.57-9.41,16.55,10.13-4.79,9.95-3.26-11,11-12.84,14,7.78-5.88,7.41-1-4.7,16.55-10,20.17,6.25-1.9,6.34-.45-5.07,7.24-8.69,9.86,9.68-2,9.14-.63-8.6,14.56-14,17.37,12.57-3.44,12.48-2.54-5.16,14.48-10,16.56,8-2.72,7.78-2-6,8.5-10.31,10.94,11.21-3.16,10.94-1.63-4.61,8.05-9,10.77,11.48-6.52,11.76-4.62-6,13.3-10.68,18.55,11.49-5.79,12.76-3.8-8.6,18.45-16.2,22.79,16.74-6.24,16.74-4.16-12.17,18.37-18.39,21.35,18.75-6.87,19.38-5.34-15.55,15.29-21.34,20.45,17.45-7.24,18.72-4.62-10.94,15.11-19,18S2496.41,338.89,2496.41,342.06Z"/><path class="cls-28" d="M2355.69,381.54v26.58h-11V382.59c0-1.44-31.55,11-23.43,7.33S2344,368.19,2343.61,367s-22.78,7.17-15.8,3.53,15.71-13.64,15.41-14-20.81,6.19-16.59,4.13,16.3-8.84,16.3-11.59-23.37,4.81-16.5,2.16,16.1-8.93,15.17-11.49-25.58,7.66-17.82,3.64,18.85-14,19.44-17-21.31,7.56-14.35,3.34,14.15-12.27,14.45-14.93-18.66,7.66-13.06,4,11.78-15.12,11.19-17.08-18.26,6.48-10.7,2,14-12.39,13.76-15.14-14,7.36-9.54,3.44,9.53-12.18,8.84-14.44-13.75,7-9.72,2.55,11-16.1,11-18.16-10.31,4.71-6.68.49,9.23-14.63,8.84-15.9-13.36,8.34-8.45,2.45,12.57-16.1,11.29-18.85-10.89,5.5-5.59,0,8.64-26.32,9.55-26.32c1.71,0,10.61,23.05,13.62,26.25s-7.86-1.57-8.12-.72,9.3,13.16,12.7,15.39-9.75-3.41-9.95-2.88,7.86,12.82,11.06,14.33-10.4-3.4-10.34-2.68,9.49,14.59,13,16.75-11.58-6.35-12.57-5.56,8.44,13.09,13.09,15.38-15.57-4.45-15.57-3.73,4.64,6.81,8.44,9-6.28-1.63-6.54-1,7.13,11.06,12.83,13.09-12.11-2.69-12.18-2.36,9.75,15.91,14.47,18.79-12.7-3.21-12.83-2.1,10.12,13.75,13.64,16.43-14-7.52-14.17-6.41S2374.87,334,2381,336.7s-15-5.23-15.25-3.79,15.9,13.81,22.91,17.21-19.84-3.6-19.9-2.75,14.57,9.76,21.59,12.18-22.51-5.24-22.58-4.52,9.95,10.28,18.4,12.7-19-4.52-18.79-3.27,5.7,6.67,10.15,9-7.33-2.55-7.79-2.09,11.19,8.64,18.85,10.73-23.37-6.67-23.7-5.69,10.07,6.19,18.33,10.8C2386,388.74,2355.69,379.25,2355.69,381.54Z"/><path class="cls-29" d="M2734,269.75v26.57h-11V270.79c0-1.44-31.55,11-23.43,7.33s22.74-21.73,22.35-22.91-22.78,7.17-15.81,3.54,15.71-13.65,15.42-14-20.82,6.18-16.59,4.12,16.29-8.83,16.29-11.58-23.36,4.81-16.49,2.16,16.1-8.94,15.17-11.49-25.58,7.66-17.82,3.63,18.85-14,19.44-17-21.31,7.56-14.35,3.33,14.15-12.27,14.45-14.92-18.66,7.66-13.06,4,11.78-15.13,11.19-17.09-18.26,6.48-10.7,2,14-12.39,13.75-15.14-14,7.37-9.53,3.44,9.53-12.17,8.84-14.43-13.75,7-9.72,2.55,11-16.1,11-18.16-10.3,4.71-6.67.49,9.23-14.63,8.84-15.91-13.36,8.35-8.45,2.46,12.57-16.11,11.29-18.86-10.9,5.5-5.59,0S2731.4,92,2732.31,92c1.7,0,10.61,23,13.62,26.25s-7.86-1.57-8.12-.72,9.3,13.16,12.7,15.38-9.75-3.4-10-2.88,7.86,12.83,11.06,14.34-10.41-3.41-10.34-2.69,9.49,14.6,13,16.76-11.59-6.35-12.57-5.56,8.44,13.09,13.09,15.38-15.57-4.45-15.57-3.73,4.64,6.8,8.44,9-6.28-1.64-6.55-1.05,7.14,11.06,12.83,13.09-12.11-2.68-12.17-2.35,9.75,15.9,14.46,18.78-12.69-3.2-12.83-2.09,10.13,13.74,13.64,16.43-14-7.53-14.16-6.42,10.28,12.24,16.37,14.93-15-5.24-15.26-3.8,15.91,13.81,22.91,17.22-19.83-3.6-19.9-2.75,14.58,9.75,21.59,12.17-22.5-5.23-22.57-4.51,10,10.27,18.4,12.69-19-4.51-18.79-3.27,5.7,6.68,10.15,9-7.33-2.55-7.79-2.1,11.19,8.65,18.85,10.74-23.37-6.68-23.7-5.69,10.07,6.18,18.33,10.8C2764.26,277,2734,267.46,2734,269.75Z"/><path class="cls-30" d="M2303.33,357.67v26.58h11V358.72c0-1.44,31.55,11,23.43,7.33s-22.74-21.73-22.35-22.91,22.78,7.17,15.81,3.54-15.71-13.65-15.42-14,20.82,6.18,16.59,4.12-16.29-8.84-16.29-11.59,23.36,4.82,16.49,2.16-16.1-8.93-15.17-11.48,25.58,7.65,17.82,3.63-18.85-14-19.44-17,21.31,7.56,14.35,3.34-14.15-12.27-14.45-14.92,18.66,7.66,13.06,4-11.78-15.12-11.19-17.08,18.26,6.48,10.7,2-14-12.39-13.75-15.14,13.95,7.37,9.53,3.44-9.53-12.18-8.84-14.44,13.75,7,9.72,2.56-11-16.1-11-18.17,10.3,4.72,6.67.49-9.23-14.63-8.83-15.9,13.35,8.34,8.44,2.45-12.57-16.1-11.29-18.85,10.9,5.5,5.59,0S2305.88,180,2305,180c-1.7,0-10.61,23-13.62,26.25s7.86-1.58,8.12-.72-9.3,13.15-12.7,15.38,9.75-3.41,9.95-2.88-7.85,12.83-11.06,14.33,10.41-3.4,10.34-2.68-9.49,14.6-13,16.76,11.59-6.35,12.57-5.57-8.44,13.09-13.09,15.39,15.57-4.46,15.57-3.74-4.64,6.81-8.44,9,6.28-1.64,6.55-1-7.14,11.06-12.83,13.09,12.11-2.68,12.17-2.36-9.75,15.91-14.46,18.79,12.69-3.21,12.83-2.09-10.13,13.74-13.64,16.43,14-7.53,14.16-6.42-10.28,12.24-16.37,14.93,15-5.24,15.26-3.8-15.91,13.81-22.91,17.21,19.83-3.6,19.9-2.75-14.58,9.76-21.59,12.18,22.5-5.24,22.57-4.52-9.95,10.28-18.4,12.7,19-4.51,18.79-3.27-5.69,6.68-10.15,9,7.34-2.56,7.79-2.1-11.19,8.64-18.85,10.74,23.37-6.68,23.7-5.7-10.07,6.19-18.33,10.8C2273,364.87,2303.33,355.38,2303.33,357.67Z"/><path class="cls-31" d="M2784.21,301.56h-19.3v-37c0-1.76-39.12,8.28-28.72,3s21.58-19.12,21.45-19.78-21.41,8.86-15.86,5.42,15.6-14.93,15.2-16.39-19,5.69-13.48,2.91,13.88-13,13.22-13.74-20.62,8.32-16.66,5.68,16.66-12.29,16.26-14-14.27,4.76-9.12,1.19,10.05-8.59,10.05-10.84-21.41,10-14.05,4,13.43-12,13.87-13.48-17.71,8-13.13,5.11,15.86-17.18,15.86-18.77-15.42,8-12,5,15.33-16.39,15.15-17.44-17.71,7.75-13.13,4,15.6-18.06,15.95-19.56-17.88,10.84-13.3,7.22,17.27-24.23,17.44-25.72-17.27,8.1-13.12,5.28,11.8-15.86,11.71-17.18-20.44,7.93-16.47,4.67,16.65-15.77,16.25-16.92-18.37,12.25-14.75,9.17S2771,100.15,2771,99s-12.33,8.81-9.34,4.67,14.8-30.31,14.8-31.1-13.57,8.81-11.19,6.34,15.86-33.57,17.8-33.57c1.24,0,8.46,15.95,11.28,18.33s-5.55-3.17-6.26-2.38,5.38,12.34,9.78,16.21-6.69-4-7-3.17,6.44,11.54,11.72,16.13-10.66-6.17-11.1-4.85,10.49,14.1,15.6,17.53-13.66-7.31-14.89-6.08,9.86,14.54,16.91,18.59-12.95-4.75-13-4.4,11,13.66,16.48,16.56-12.6-4.14-13.48-3.43,10.51,13.57,14.51,15.15-8.61-1.85-9.05-1.14,5.29,7.22,8.63,9-11.45-3.52-12.51-2.55,8,10.75,12.43,12.33-13.57-2.2-14-1.49,4.23,5.11,8.54,7.4-6.52-.62-7.75.44,9.25,12,14.89,15.59-13.22-4.67-13-3.26,7.23,9.69,15.07,12.95-13.31-3.17-13.4-2,6.79,8,11.9,11.54-11.72-4.41-12.07-2.47,7.4,9.34,11.63,13.22-11.46-6.17-12.16-4.41,8.81,13,14.45,16.22-14.63-4.85-14.54-3.53,10,12.25,15,14.72-14.27-4-14.71-3.35,11.69,15.11,19.11,20.66-23.78-6.61-24.18-5.55,21.67,21.28,28.55,23.92-42.16-10.05-42.16-7.93Z"/><path class="cls-32" d="M2830.51,322.29h-19.3v-37c0-1.76-39.12,8.28-28.72,3s21.58-19.12,21.45-19.78-21.41,8.85-15.86,5.41,15.6-14.93,15.2-16.38-19,5.68-13.48,2.9,13.88-13,13.22-13.74-20.62,8.32-16.66,5.68,16.66-12.29,16.26-14-14.27,4.76-9.12,1.19,10-8.59,10-10.84-21.41,10-14,4,13.43-12,13.87-13.48-17.71,8-13.13,5.11,15.86-17.18,15.86-18.77-15.42,8-12,5,15.33-16.38,15.15-17.44-17.71,7.75-13.13,4,15.6-18.06,16-19.56-17.89,10.84-13.3,7.23,17.27-24.23,17.44-25.73-17.27,8.1-13.13,5.29,11.81-15.86,11.72-17.19-20.44,7.93-16.47,4.67S2815,136.11,2814.6,135s-18.37,12.24-14.76,9.16,17.45-23.26,17.45-24.41-12.34,8.82-9.34,4.67,14.8-30.31,14.8-31.1-13.57,8.81-11.19,6.35,15.86-33.57,17.8-33.57c1.23,0,8.46,15.94,11.28,18.32s-5.55-3.17-6.26-2.38,5.38,12.34,9.78,16.22-6.69-4-7-3.18,6.43,11.55,11.72,16.13-10.66-6.17-11.1-4.85,10.48,14.1,15.59,17.54-13.65-7.32-14.89-6.08,9.87,14.53,16.92,18.59-13-4.76-13-4.41,11,13.66,16.48,16.57-12.6-4.15-13.48-3.44,10.51,13.57,14.5,15.15-8.6-1.85-9-1.14,5.29,7.22,8.63,9-11.45-3.53-12.51-2.56,8,10.75,12.43,12.34-13.57-2.21-14-1.5,4.23,5.11,8.54,7.4-6.52-.62-7.75.44,9.25,12,14.89,15.59-13.22-4.66-13-3.26,7.22,9.7,15.07,13-13.31-3.18-13.4-2,6.79,8,11.9,11.54-11.72-4.4-12.07-2.46,7.4,9.33,11.63,13.21-11.46-6.17-12.16-4.4,8.81,13,14.45,16.21-14.63-4.85-14.54-3.53,10,12.25,15,14.72-14.27-4-14.72-3.35,11.7,15.11,19.11,20.66-23.78-6.61-24.17-5.55,21.67,21.28,28.55,23.92-42.16-10-42.16-7.93Z"/><path class="cls-33" d="M2886.51,282.39h-19.3v-37c0-1.76-39.12,8.28-28.72,3s21.58-19.12,21.45-19.78-21.41,8.86-15.86,5.42,15.6-14.93,15.2-16.39-19,5.69-13.48,2.91,13.88-12.95,13.22-13.74-20.62,8.32-16.66,5.68,16.66-12.29,16.26-14-14.27,4.76-9.12,1.19,10-8.59,10-10.84-21.41,10.05-14,4,13.43-12,13.87-13.48-17.71,8-13.13,5.11,15.86-17.18,15.86-18.77-15.42,8-12,5,15.33-16.39,15.15-17.44-17.71,7.75-13.13,4.05,15.6-18.06,16-19.56-17.89,10.84-13.3,7.22,17.27-24.23,17.44-25.72-17.27,8.1-13.13,5.28,11.81-15.86,11.72-17.18-20.44,7.93-16.47,4.67S2871,96.22,2870.6,95.08s-18.37,12.24-14.76,9.16,17.45-23.26,17.45-24.41S2861,88.64,2864,84.5s14.8-30.31,14.8-31.1-13.57,8.81-11.19,6.34,15.86-33.57,17.8-33.57c1.23,0,8.46,15.95,11.28,18.33s-5.55-3.17-6.26-2.38,5.38,12.34,9.78,16.21-6.69-4-7-3.17,6.43,11.54,11.72,16.13-10.66-6.17-11.1-4.85,10.48,14.1,15.59,17.53-13.65-7.31-14.89-6.08,9.87,14.54,16.92,18.6-13-4.76-13-4.41,11,13.66,16.48,16.56-12.6-4.14-13.48-3.43,10.51,13.57,14.5,15.15-8.6-1.85-9-1.14,5.29,7.22,8.63,9-11.45-3.52-12.51-2.55,8,10.75,12.43,12.33-13.57-2.2-14-1.49,4.23,5.11,8.54,7.4-6.52-.62-7.75.44,9.25,12,14.89,15.59-13.22-4.67-13-3.26,7.22,9.69,15.07,13-13.31-3.17-13.4-2,6.79,8,11.9,11.54-11.72-4.4-12.07-2.47,7.4,9.34,11.63,13.22-11.46-6.17-12.16-4.41,8.81,13,14.45,16.22-14.63-4.85-14.54-3.53,10,12.25,15,14.72-14.27-4-14.72-3.35,11.7,15.11,19.11,20.66-23.78-6.61-24.17-5.55,21.67,21.28,28.55,23.92-42.16-10-42.16-7.93Z"/><path class="cls-34" d="M2398.47,384.25h19.3v-37c0-1.76,39.12,8.29,28.72,3s-21.58-19.12-21.45-19.78,21.41,8.85,15.86,5.42-15.6-14.94-15.2-16.39,19,5.68,13.48,2.91-13.88-12.95-13.22-13.75,20.62,8.33,16.66,5.69-16.66-12.3-16.26-14,14.27,4.75,9.12,1.19-10-8.59-10-10.84,21.41,10,14,4-13.43-12-13.87-13.48,17.71,8,13.13,5.11-15.86-17.18-15.86-18.76,15.42,8,12,5-15.33-16.39-15.15-17.45,17.71,7.76,13.13,4.06-15.6-18.07-16-19.56,17.89,10.83,13.3,7.22-17.27-24.23-17.44-25.73,17.27,8.11,13.13,5.29-11.81-15.86-11.72-17.18,20.44,7.93,16.47,4.67-16.65-15.77-16.25-16.92,18.37,12.25,14.76,9.16-17.45-23.26-17.45-24.4,12.34,8.81,9.34,4.67-14.8-30.31-14.8-31.1,13.57,8.81,11.19,6.34S2401.56,128,2399.62,128c-1.23,0-8.46,15.95-11.28,18.33s5.55-3.18,6.26-2.38-5.38,12.33-9.78,16.21,6.69-4,7-3.17-6.43,11.54-11.72,16.12,10.66-6.17,11.1-4.84-10.48,14.09-15.59,17.53,13.65-7.31,14.89-6.08-9.87,14.54-16.92,18.59,12.95-4.76,13-4.4-11,13.65-16.48,16.56,12.6-4.14,13.48-3.44-10.51,13.57-14.5,15.16,8.6-1.85,9-1.15-5.29,7.23-8.63,9,11.45-3.52,12.51-2.56-8,10.75-12.42,12.34,13.56-2.2,14-1.5-4.23,5.11-8.54,7.4,6.52-.61,7.75.44-9.25,12-14.89,15.6,13.22-4.67,13-3.26-7.22,9.69-15.07,13,13.31-3.17,13.4-2-6.79,8-11.9,11.55,11.72-4.41,12.07-2.47-7.4,9.34-11.63,13.22,11.46-6.17,12.16-4.41-8.81,13-14.45,16.21,14.63-4.84,14.54-3.52-10,12.24-15,14.71,14.27-4,14.72-3.35-11.7,15.11-19.11,20.67,23.78-6.61,24.17-5.56-21.67,21.28-28.55,23.93,42.16-10.05,42.16-7.93Z"/><path class="cls-35" d="M2169.56,468h19.3V431c0-1.76,39.12,8.28,28.72,3s-21.58-19.12-21.45-19.78,21.41,8.86,15.86,5.42-15.6-14.93-15.2-16.39,19,5.69,13.48,2.91-13.88-12.95-13.22-13.74,20.62,8.32,16.66,5.68-16.66-12.29-16.26-14,14.27,4.76,9.12,1.19-10-8.59-10-10.84,21.41,10.05,14,4-13.43-12-13.87-13.48,17.71,8,13.13,5.11S2194,352.81,2194,351.22s15.42,8,12,5-15.33-16.39-15.15-17.44,17.71,7.75,13.13,4.05-15.6-18.06-15.95-19.56,17.89,10.84,13.3,7.22-17.27-24.23-17.44-25.72,17.27,8.1,13.13,5.28-11.81-15.86-11.72-17.18,20.44,7.93,16.47,4.67-16.65-15.77-16.25-16.92,18.37,12.25,14.76,9.17-17.45-23.26-17.45-24.41,12.34,8.81,9.34,4.67-14.8-30.31-14.8-31.1,13.57,8.81,11.19,6.34-15.86-33.57-17.8-33.57c-1.23,0-8.46,15.95-11.28,18.33s5.55-3.17,6.26-2.38-5.38,12.34-9.78,16.21,6.69-4,7-3.17-6.43,11.54-11.72,16.13,10.66-6.17,11.1-4.85-10.48,14.1-15.59,17.53,13.65-7.31,14.89-6.08-9.87,14.54-16.92,18.59,12.95-4.75,13-4.4-11,13.66-16.48,16.56,12.6-4.14,13.48-3.43-10.51,13.57-14.5,15.15,8.6-1.85,9-1.14-5.28,7.22-8.63,9,11.45-3.52,12.51-2.55-8,10.75-12.42,12.33,13.56-2.2,14-1.49-4.22,5.11-8.54,7.4,6.52-.62,7.75.44-9.25,12-14.89,15.59,13.22-4.67,13-3.26-7.22,9.69-15.07,12.95,13.31-3.17,13.4-2-6.79,8-11.9,11.54,11.72-4.41,12.07-2.47-7.4,9.34-11.63,13.22,11.46-6.17,12.16-4.41-8.81,13-14.45,16.22,14.63-4.85,14.54-3.53-10,12.25-15,14.72,14.28-4,14.72-3.35-11.7,15.11-19.11,20.66,23.78-6.61,24.17-5.55-21.67,21.28-28.54,23.92,42.15-10,42.15-7.93Z"/><path class="cls-36" d="M2939,217.46v17.29h-13.85s-.11-14.06,0-15.52-31.77,9.58-22.39,4.58,17.91-15.62,18.22-17.08-21.66,11.56-15.52,7.08,14.48-17.7,15-19.26-26.66,14.79-18.85,9.06,19.45-22.78,19.45-24.19-22.65,12.26-14.76,6.8,12.91-14.32,12.76-14.95-12.87,5.26-9.22,2.76,10-9.58,10.2-11.46-25.41,11.36-18.43,6.67,16.17-14,16.17-15-16.09,6.09-11.17,3.28,10.86-13.12,10.23-14.22-22.88,9.84-15.7,5.7,18.05-14.13,18-15.7-18.44,9.3-13.52,5.63,13-15.39,12.5-16.48-11.79,4.79-8.36,2.6,9.59-8,9.17-9.68-22.29,11.14-15,5.41,16.57-16.45,16.57-17.91-18.54,10.31-12.18,5.93,12.39-17.7,11.35-20.1-20.41,10.94-14.69,5.73,17.6-17.5,17.24-18.33-14.22,6-10.36,3.44,14.47-16.14,14.47-18.23-15.72,9.17-12,4.69S2928,47.6,2927.9,45.62s-15.94,11.87-13.23,8.22,13.95-24.57,13.23-26.14-9.38,6.56-7.4,2.29S2931,0,2932.58,0c.84,0,13,24.73,15.73,27.81s-7.19-4.85-7.45-4,8.7,11.72,11.77,14-11-5.26-11.51-4.69,9.38,12,11.72,14.21S2942.79,39.84,2942,41s8.76,11.51,11.12,13.7-9.14-5.73-9.56-5.11,5.52,11.62,8.59,14.64-7.13-4.27-7.5-3.49,6.51,11.35,9.38,13.75-8.49-4.85-9-4.27,5.21,10.93,7.91,13.38-9.84-8-10.41-7.5,4,9.06,5.52,10.57-4.22-2.86-4.53-2.39,4.22,7,7.65,9.73-9-5.1-9.37-4.27,3.12,4.85,4.74,6.25-4.9-2.24-5.31-1.72,6.71,7,10.15,9.32-7.86-3.28-8.07-2.91,5.26,9.68,9.79,12.81-7.34-4.17-7.71-3.75,5.94,11.2,10.83,15-9.68-5.63-10.62-4.9,5.62,10,12.29,14.48-13.75-5.21-14.37-3.85,11.66,12.18,16.24,15.83-16.45-7.71-16.45-6.77,8.33,13.22,14.58,17.29-15-7.19-16.56-4.85,15.62,18.91,21.4,22.34-16.4-5.15-17-4.37,17.5,16.71,21.88,19.68-19.38-8.43-20.63-6.4,9.85,10.46,15.94,14.06-18.75-3.91-19.06-3.13,16.4,13.13,21.71,15.47-23-8.13-24.21-6.25,20,17.5,26.78,20.62S2939,217.46,2939,217.46Z"/><path class="cls-37" d="M2266.28,363.58v17.29h13.85s.1-14.06,0-15.52,31.76,9.59,22.39,4.59-17.91-15.63-18.23-17.08,21.67,11.56,15.52,7.08-14.47-17.71-15-19.27,26.67,14.79,18.86,9.06-19.45-22.78-19.45-24.19,22.65,12.27,14.76,6.8-12.92-14.32-12.76-14.95,12.86,5.26,9.22,2.76-10-9.58-10.21-11.45,25.41,11.35,18.44,6.66-16.17-13.95-16.17-15,16.09,6.09,11.17,3.28-10.86-13.12-10.24-14.21,22.89,9.84,15.7,5.7-18-14.14-18-15.7,18.43,9.29,13.51,5.62-13-15.39-12.5-16.48,11.8,4.79,8.36,2.6-9.58-8-9.16-9.68,22.28,11.14,15,5.41-16.58-16.45-16.58-17.91,18.54,10.31,12.19,5.94-12.39-17.71-11.35-20.1,20.41,10.93,14.68,5.73-17.6-17.5-17.23-18.33,14.21,6,10.36,3.43S2279,209.55,2279,207.47s15.73,9.16,12,4.68-13.64-18.43-13.54-20.41,15.93,11.87,13.23,8.23-14-24.58-13.23-26.14,9.37,6.56,7.39,2.29-10.51-30-12.08-30c-.83,0-13,24.74-15.72,27.81s7.18-4.84,7.44-4-8.69,11.72-11.76,14,11-5.26,11.5-4.69-9.37,12-11.71,14.22,10.05-7.5,10.83-6.35-8.77,11.5-11.13,13.69,9.15-5.73,9.57-5.1-5.52,11.61-8.6,14.63,7.14-4.27,7.5-3.49-6.51,11.35-9.37,13.75,8.49-4.84,9-4.27-5.21,10.93-7.92,13.38,9.84-8,10.42-7.5-4,9.06-5.52,10.57,4.22-2.86,4.53-2.39-4.22,7-7.66,9.74,9-5.11,9.38-4.27-3.13,4.84-4.74,6.25,4.89-2.24,5.31-1.72-6.72,7-10.15,9.32,7.86-3.28,8.07-2.92-5.26,9.69-9.79,12.81,7.34-4.16,7.7-3.75-5.93,11.2-10.83,15,9.69-5.62,10.63-4.89-5.63,10-12.29,14.47,13.74-5.2,14.37-3.85-11.67,12.19-16.25,15.83,16.46-7.71,16.46-6.77-8.34,13.23-14.58,17.29,15-7.19,16.56-4.84-15.63,18.9-21.41,22.34,16.41-5.16,17-4.38-17.5,16.72-21.87,19.69,19.37-8.44,20.62-6.41-9.84,10.47-15.93,14.06,18.74-3.9,19.06-3.12-16.41,13.12-21.72,15.46,23-8.12,24.22-6.25-20,17.5-26.79,20.62S2266.28,363.58,2266.28,363.58Z"/><path class="cls-38" d="M2131.93,444.3v17.29h13.85s.11-14.06,0-15.52,31.77,9.58,22.39,4.58S2150.26,435,2150,433.57s21.66,11.56,15.52,7.08-14.48-17.7-15-19.27,26.66,14.79,18.85,9.07-19.45-22.79-19.45-24.19,22.65,12.26,14.76,6.79-12.91-14.32-12.75-14.94,12.86,5.26,9.21,2.76-10-9.58-10.2-11.46,25.41,11.35,18.43,6.67-16.17-14-16.17-15,16.09,6.09,11.17,3.28-10.86-13.13-10.23-14.22,22.88,9.84,15.7,5.7-18.05-14.14-18-15.7,18.44,9.3,13.52,5.63-13-15.39-12.5-16.49,11.79,4.8,8.36,2.61-9.59-8-9.17-9.69,22.29,11.15,15,5.42-16.57-16.46-16.57-17.92,18.54,10.32,12.18,5.94-12.39-17.7-11.35-20.1,20.42,10.94,14.69,5.73-17.6-17.5-17.24-18.33,14.22,6,10.36,3.44-14.47-16.15-14.47-18.23,15.72,9.16,12,4.69-13.64-18.44-13.54-20.42,15.94,11.88,13.23,8.23-14-24.58-13.23-26.14,9.38,6.56,7.4,2.29-10.52-30-12.08-30c-.84,0-13,24.73-15.73,27.8s7.19-4.84,7.45-3.95-8.7,11.71-11.77,13.95,11-5.26,11.51-4.68-9.38,12-11.72,14.21,10-7.5,10.83-6.35-8.76,11.51-11.12,13.69,9.14-5.72,9.56-5.1-5.52,11.61-8.59,14.63,7.13-4.27,7.5-3.48-6.51,11.35-9.38,13.74,8.49-4.84,9-4.27-5.2,10.94-7.91,13.39,9.84-8,10.41-7.5-4,9.06-5.52,10.57,4.22-2.87,4.53-2.4-4.22,7-7.65,9.74,9-5.1,9.37-4.27-3.12,4.84-4.74,6.25,4.9-2.24,5.31-1.72-6.71,7-10.15,9.32,7.86-3.28,8.07-2.91-5.26,9.68-9.79,12.81,7.34-4.17,7.71-3.75-5.94,11.19-10.83,15.05,9.68-5.63,10.62-4.9-5.62,10-12.29,14.48,13.75-5.21,14.37-3.86-11.66,12.19-16.24,15.83,16.45-7.7,16.45-6.77-8.33,13.23-14.58,17.29,15-7.18,16.56-4.84-15.62,18.9-21.4,22.34,16.4-5.16,17-4.37-17.5,16.71-21.88,19.68,19.38-8.44,20.63-6.41-9.85,10.47-15.94,14.06,18.75-3.9,19.06-3.12-16.4,13.12-21.71,15.47,23-8.13,24.21-6.25-20,17.49-26.78,20.62S2131.93,444.3,2131.93,444.3Z"/></g></g></svg>