<svg xmlns="http://www.w3.org/2000/svg" xmlns:xlink="http://www.w3.org/1999/xlink" viewBox="0 0 2638.86 866.96"><defs><style>.cls-1{fill:url(#linear-gradient);}.cls-2{fill:url(#linear-gradient-2);}.cls-3{fill:url(#linear-gradient-3);}.cls-4{fill:url(#linear-gradient-4);}.cls-5{fill:#ec6d4a;}.cls-6{fill:url(#linear-gradient-5);}.cls-7{fill:url(#linear-gradient-6);}</style><linearGradient id="linear-gradient" x1="465.93" y1="103.23" x2="465.93" y2="582.55" gradientUnits="userSpaceOnUse"><stop offset="0" stop-color="#ec6d4a"/><stop offset="1" stop-color="#ec594a"/></linearGradient><linearGradient id="linear-gradient-2" x1="473.95" y1="199.26" x2="298.61" y2="390.96" gradientUnits="userSpaceOnUse"><stop offset="0" stop-color="#ec814a"/><stop offset="1" stop-color="#ec6d4a"/></linearGradient><linearGradient id="linear-gradient-3" x1="589.5" y1="77.35" x2="677.5" y2="629.35" gradientUnits="userSpaceOnUse"><stop offset="0" stop-color="#ec594a"/><stop offset="1" stop-color="#ec464a"/></linearGradient><linearGradient id="linear-gradient-4" x1="230" y1="228.04" x2="204.33" y2="270.37" xlink:href="#linear-gradient-3"/><linearGradient id="linear-gradient-5" x1="2000.83" y1="244.37" x2="1989.83" y2="296.04" xlink:href="#linear-gradient-3"/><linearGradient id="linear-gradient-6" x1="2491.33" y1="10.92" x2="2441.83" y2="592.89" xlink:href="#linear-gradient-3"/></defs><g id="Layer_2" data-name="Layer 2"><g id="mountain"><path class="cls-1" d="M0,400.11C81,326.62,195.86,226,203.86,221s43,27,43,27c23-23,145-153,169-149s483,535.49,516,578.49H0Z"/><path class="cls-2" d="M231.78,677.53c-18.71-49.69-40.41-109.77-42.39-126.13-3.53-29.21,1.85-94.33,8.16-110.1s-.19-16.31,2.81-30-2.12-12.61,3.88-21.41,7.62-7.8,15.12-25.81,17.29-57.46,24.56-67,6.27-12.53,12.6-16.53,30.34-42,37-55,6.67-18.34,19.67-32.34,46.67-46.33,55.33-53.66c4.06-3.43,7.31-11.24,9.62-18.58C332.47,158.21,263.56,231.33,246.86,248c0,0-2.17-2-5.55-4.88-9.58,10.55-27.65,30.35-34.31,37.37-5.34,5.62-5.43,11.39-9.45,16.53s-9.7,13.56-15,16.8-9.74,10.25-12.83,14.39-49.89,43.6-56.36,52.44-7.47,5.86-15,16.6-17.23,45.57-34,64C56,470.5,29.63,501,0,534.46V677.53Z"/><path class="cls-3" d="M415.86,99a10.8,10.8,0,0,0-4.52.44c-7.34,17.42-7.5,39.32-8.66,48.05-1.49,11.33,1.39,18.66,5.62,41.33s4.43,30.53,5.49,41.1S383.34,243,374.1,253s8.84,6,20.3,12,19,1.5,28.46,13.5,11,36.33-2.78,53.37-6.38,4.44-6.29,19,6.5,7.42,16.43,22.7,12.56,13.89,27.74,17.69,28.56-20.13,35.9-10.62,15.45,48.05,12.72,66.11-16.2,9.48,6.08,29.32S530,524,527.44,551.25c-.82,8.69-10.15,60.17-22.48,126.28h426.9C898.86,634.53,439.86,103,415.86,99Z"/><path class="cls-4" d="M208.11,246.53c-.75,6.75-2.75,5.75-2.5,9.25s.75,3.5,3.75,8.5,0,5.25-2.36,16.25c5.33-2.17,8.61-2.5,16.61-8.5s15-15,23.25-24c0,0-30.94-28.28-41.29-27.51a20.57,20.57,0,0,1,1.43,6.25C207.08,233,208.86,239.78,208.11,246.53Z"/><path class="cls-5" d="M1410.78,617.94c79.71-65.76,340.77-265.05,358.71-271s53.42,26.89,53.42,26.89c24-19.82,145.95-123.22,153.95-128.07s42,21.16,42,21.16c63-59,275-265.39,300.53-266.89s319.47,234,319.47,234V867H1410.78Z"/><path class="cls-6" d="M1976.52,270.33c1,9.13,3.67,13.78-3.33,26.2s1.33,5.89,5.67,17.33c5.84-5.29,8.66-7.33,9.86-12.94s7.47-10.39,11.15-12.39,9.65-12.34,19-21.63c0,0-31.67-24.22-41.07-21.55C1978.2,254.12,1975.83,264,1976.52,270.33Z"/><path class="cls-7" d="M2638.86,234S2344.89-1.49,2319.39,0a7.38,7.38,0,0,0-1.53.27c-4.47,9.86-.48,17.94-2,29.91-2,16.67,2.61,23.57-4.72,41.12s-2.33,22.85-5.33,33,19.5,14.49,26.5,19.59,22.69,5.6,22.34,12.6-51.34,1.16-56.34,6.58-6.14,8.48-7.57,21.7,7.19,13.47,6.07,18.34-7.09,9.38-7.8,17.38,7.41.2,4.31,17.9-9.1,26.19-14.29,39,.75,17.31.23,34.63-7.8-1.69-8.63,18.63-13.49,33.08-18.82,51.31,1.18,28.75-7,46,0,44.86-6.48,70.73-16.46,109.7-16.46,109.7V867h417Z"/></g></g></svg>